<?xml version="1.0" encoding="UTF-8"?>
<svg id="Layer_2" data-name="Layer 2" xmlns="http://www.w3.org/2000/svg" viewBox="0 0 198.93 200.17">
  <defs>
    <style>
      .cls-1 {
        fill: #edf8fc;
      }

      .cls-2 {
        fill: #0a295e;
      }

      .cls-3 {
        fill: #06dbcf;
      }

      .cls-4 {
        fill: #0582d2;
      }

      .cls-5 {
        fill: #0673be;
      }

      .cls-6 {
        fill: #07b1c1;
      }

      .cls-7 {
        fill: #080b3a;
      }

      .cls-8 {
        fill: #0494ae;
      }

      .cls-9 {
        fill: #fbfcfc;
      }

      .cls-10 {
        fill: #16528f;
      }

      .cls-11 {
        fill: #06174a;
      }

      .cls-12 {
        fill: #05a8e1;
      }

      .cls-13 {
        fill: #c3f6fb;
      }

      .cls-14 {
        fill: #08e6c5;
      }

      .cls-15 {
        fill: #037899;
      }
    </style>
  </defs>
  <g id="Layer_1-2" data-name="Layer 1">
    <path class="cls-4" d="M114.82,124.61c-.67.47.53,2.67.75,2.81.99.63,2.11-.69,2.46-.69.43,0,.64.58,1,.68.46.13.96-.05,1.34.04.25.06.14.46.16.48-2.26.14-4.75-.2-6.98.03-6.21.65-11.97,7.2-16.67,10.89-9.59,7.54-18.58,11.6-31.13,10.95-1.12-.06-2.3-.48-3.43-.37,11.81,4.74,24.39,1.62,34.43-5.49,4.68-3.31,8.36-8.07,14.27-9.25,4.04-.81,8.96-.26,13.08-.11-.04,0-.27.22-.58.25-.82.07-1.69-.07-2.51,0-.31,1.4,1.4,1.3,1.43,2.61-3.6.63-7.37-.25-10.93.59-5.55,1.3-8.73,6.56-13.54,9.15-.07.38.33.25.59.23,1.39-.11,2.86-.62,4.4-.71-.53,1.52.07,1.57.99,2.46.28.27.62.17.44.87-5.84.19-9.85,2.54-15.26,4.1-3.84,1.11-7.81,1.82-11.82,1.84l2.42.79c16.02,4.31,33.28,1.59,47.72-6.25.12.35.53-.2.72.15.33.62.55,1.67.84,2.21.33.62,1.33.87,1.05,1.92-25.44,13.85-54.15,12.12-78.41-3.33-.35-1.61,1.06-1.89,1.53-2.62.26-.4.23-1.11.49-1.41.47-.57,3.18-.88,2.97-2.38,11.07,3.07,22.94-.66,32.29-6.55,8.73-5.49,14.92-13.42,25.92-13.88Z"/>
    <path class="cls-10" d="M140.25,15.07c6.75,5.02,12.58,10.8,17.54,17.75,16.09,22.55,19.67,51.69,10.27,77.42-.28.76-1.09,3.33-1.41,3.78-.19.27-.69.09-.74.14-.08.08.21.81.13,1.19-.68,3.31-7.15,13.19-9.41,16.2l-1.18,1.14c.11-.25.51-.9.48-.95-.02-.03-.46-.03-.6-.23-.6-.89,1.03-1.77.82-2.47-.58-.92-2.09-.76-2.33-1.74-.02-.76,1.75-.76,1.88-2.09.07-.77-.08-.62-.72-.6,21.26-33.46,15.6-79.45-16.39-104.07.16-1.82,1.52-3.57,1.66-5.46Z"/>
    <path class="cls-3" d="M89.87.11c1.74,2.71-1.56,3.13-2.14,5.23-25.15,1.67-49.01,17.66-60.35,39.92-1.54-.35-.34-2.14-1.14-3.26l-1.71-2.21C38.54,15.58,61.7,1.25,89.87.11Z"/>
    <path class="cls-14" d="M24.53,39.79l1.71,2.21c.8,1.12-.4,2.91,1.14,3.26-10.68,20.97-11.52,45.63-2.14,67.24l-1.07-.73c-.43.49-1.8.76-2.05,1.06-.52.63-.17,3.14-.69,3.95-.61.13-.49-.3-.65-.65-11.18-24.99-9.95-52.69,3.73-76.33Z"/>
    <path class="cls-5" d="M154.98,124.61c.64-.02.8-.17.72.6-.13,1.33-1.89,1.33-1.88,2.09.24.98,1.75.82,2.33,1.74.21.71-1.43,1.59-.82,2.47.14.2.58.2.6.23.03.04-.36.7-.48.95-.61,1.35-1.97,2.9-2.97,4.04-6.5,7.4-13.81,13.35-22.46,18.05.28-1.04-.72-1.3-1.05-1.92-.29-.54-.51-1.59-.84-2.21-.19-.35-.6.2-.72-.15,10.71-5.81,21.04-15.64,27.56-25.9Z"/>
    <path class="cls-3" d="M21.44,116.77c.52-.81.17-3.32.69-3.95.24-.3,1.62-.57,2.05-1.06l1.07.73c2.46,5.68,7.25,13.75,11.88,18.06-.1,1.21-1.65,1.78-2.01,2.39-.58.98.14,2.93-1.56,2.84-.18-.21-.45-.4-.71-.71l-.24-.48c-4.43-5.38-8.91-11.17-11.17-17.82Z"/>
    <path class="cls-12" d="M54.95,138.39c-.18.83.77.27,1.09.69.57.76-1.22,3.36-2.04,3.82-.74-.14-1.82-.39-2.5-.48-.52-.07-.43.19-.12.36,1,.55,4.21,1.97,5.23,2.26.21,1.5-2.5,1.81-2.97,2.38-.25.31-.23,1.01-.49,1.41-.47.73-1.88,1.02-1.53,2.62-3.82-2.43-7.04-4.87-10.45-7.84.77-.46,1.1-1.19,1.65-1.79,1.79-1.92,3.19-2.7,5.54-3.92.26-.13.15-.45.17-.47.28-.17,5.45.85,6.42.95ZM50.79,142.19v.24c.15-.08.15-.16,0-.24Z"/>
    <path class="cls-6" d="M48.53,137.44s.08.33-.17.47c-2.35,1.22-3.75,1.99-5.54,3.92-.56.6-.89,1.34-1.65,1.79-3.07-2.67-4.98-4.78-7.6-7.84,1.7.09.98-1.86,1.56-2.84.36-.61,1.91-1.18,2.01-2.39,1.37,1.27,3.43,2.52,5.01,3.66l6.4,3.23Z"/>
    <path class="cls-6" d="M106.74,1.06c.24,2.2-2.6,2.36-1.9,4.99-5.15-.8-11.91-1.06-17.11-.71.58-2.1,3.88-2.52,2.14-5.23,6.38-.26,10.56-.08,16.87.95Z"/>
    <path class="cls-4" d="M128.13,7.71l-.32,1.22-2.29,3.53c-.31-.15-.66-.34-.95-.48s-.23,0-.24,0c-4.55-2.05-9.62-3.9-14.49-4.99,1.15-.67,1.91-2,2.97-2.85.84-.68,1.97-.39,1.31-1.66,4.88,1.28,9.48,3.05,14.02,5.23Z"/>
    <path class="cls-5" d="M128.13,7.71c4.67,2.24,8.03,4.33,12.12,7.37-.14,1.9-1.51,3.65-1.66,5.46-3.7-2.85-8.87-6.04-13.07-8.08l2.29-3.53.32-1.22Z"/>
    <path class="cls-2" d="M3.62,183.54s-.09-.21-.21-.21l-.27.44c-.09-1.38-1.14.57-1.44.82-.71.59-1.14.58-1.41-.34,1.15-7.86,8.97-12.52,16.52-9.99,1.07.36,4.28,2.17,4.76,3.1.27.52-1.58,2.11-2.15,2.38-4.64-4.13-11.04-3.71-14.57,1.58-.28.42-.91,2.14-1.23,2.22Z"/>
    <path class="cls-7" d="M3.39,188.29c.99,7.7,10.73,10.96,16.05,5.23h.33c1.65,2.13,3.07,1.86.23,3.89-7.48,5.37-17.81,1.28-19.46-7.7,1.33.17,2.3-.18,2.85-1.43Z"/>
    <path class="cls-7" d="M24.3,187.81c.36,1.1,1.58,1.27,2.61,1.19-.26.72-.3,1.49-.24,2.26.54,6.61,9.5,7.5,11.16.6l.23-.12-.23-.12c.09-.47.31-.93.24-1.43.76,1.17,1.79.3,2.85.24.02.38.02.81,0,1.19l-.24.95c-1.86,11.18-19.12,8.2-16.87-3.09l.24-.24c.04-.21-.05-.52,0-.71l.24-.24c.04-.13-.04-.35,0-.48Z"/>
    <path class="cls-2" d="M123.85,175.46c.02-.32-.02-.64,0-.95h13.31c-.22.94.65,3.33-.83,3.33h-9.15v7.6c2.49.24,5.55-.32,7.97-.01.39.05.71.03.82.49h-8.79s1.42.47,1.42.47c-.58-.05-1.23.08-1.79,0-.63-.08-2.17-1.05-2.25-.96-.11.12.23.79-.24.71-.09-3.28.11-6.59,0-9.87-.02-.46.24-.95-.48-.82ZM126.7,183.77v-1.66h-.23v1.66h.23Z"/>
    <path class="cls-7" d="M57.56,189.24c1.91-.08.03,2.22,1.18,2.98.88.59.94-.7,1.91-.37-.03,2.45.02,4.92,0,7.37-.48-.08-2.98.11-3.09,0-.14-.14.2-1.79-.12-2.14-3.28,4.11-10.19,3.01-12.61-1.41-.26-.48-.21-.86-.34-1.2,1.16.2,1.66-.81,2.61-1.19,1.19,2.65,3.96,3.91,6.78,3.1,3.15-.9,4.03-4.2,3.67-7.14Z"/>
    <path class="cls-7" d="M105.32,189c0,3.4,0,6.82,0,10.22-2.07-.06-3.68.69-2.97-2.13-3.44,3.84-9.48,3.24-12.44-.88-.41-.58-.34-.9-.51-1.27.66.26,2.45.19,2.85-.48.14.23,1.49,1.19,1.83,1.38,3.79,2.08,8.02-.19,8.39-4.47.48-.17.44.43.64.47,1.95.42,1.02-2.04,2.22-2.85Z"/>
    <path class="cls-2" d="M40.93,190.43c-1.06.06-2.09.93-2.85-.24-.11-.77-1.39-3-2.01-3.57-2.98-2.76-7.84-1.33-9.16,2.39-1.03.08-2.25-.08-2.61-1.19,2.8-8.69,16.03-6.99,16.63,2.61Z"/>
    <path class="cls-2" d="M44.25,188.05c.07-.22-.03-.6.11-.95,2.18-5.17,9.31-6.81,13.08-2.38.32-.35-.02-2,.12-2.14.11-.11,2.97-.09,3.08.01.17.16.28,2.54.27,2.99s-.25.76-.25.8c-1.36-.26-.78.42-1.17,1.02-.32.49-1.52,1.08-2.15.88-.04-.1-1.19-1.55-1.31-1.66-2.69-2.59-7.5-1.57-8.91,1.9-.86-.29-2-.94-2.85-.48Z"/>
    <path class="cls-2" d="M88.92,188.53c.08-.31-.06-.74.11-1.19,2.05-5.35,9.31-7.14,13.08-2.61.39-1.16-.5-1.98,1.07-2.14-.21.89,1.4.33,2.14.48,0,.08,0,.16,0,.24l-.24.35.24.12c.02.47,0,.95,0,1.43-.43.48-.02,2.52-.87,2.62-1.3.16-2.24-2.71-3.64-1.2-2.97-2.85-8.17-1.28-9.27,2.61-1,.04-1.53-.99-2.61-.71Z"/>
    <path class="cls-7" d="M155.22,191.38c.04.07.41.23.57.48,1.58,2.48,3.61,4.71,4.89,7.36h-3.8l-3.92-5.94-3.92,5.94h-3.56c-.08-.36.08-.56.22-.85,1.1-2.31,3.39-4.42,4.77-6.52,1.88.51,2.99-.11,4.75-.48Z"/>
    <path class="cls-2" d="M80.13,187.1s-.18-.14-.23-.36c-.08-.33.06-1.23,0-1.31-.1-.11-2.27.11-2.38,0-.1-.1-.1-2.75,0-2.85.09-.09,1.98.07,2.38,0v-5.11c0-.53,3.33-.53,3.33,0v5.11h3.33c-.12.72.28,2.16-.24,2.61-.91-.53-2.28-.11-3.33-.24-.01.16,0,.32,0,.47-.73.06-1.54.43-2.38.24l-.24,2.85c-.04-.69-.13-.89-.24-1.43Z"/>
    <path class="cls-7" d="M75.38,192.33c.82,1.46,1,2.37.35,4.04-1.57,4.04-7.96,4.1-10.92,1.66-1.7-1.4-1.72-1.99.13-3.19,1.28-.83,1.08.26,1.89.93,1.97,1.61,6.88,1.35,5.93-2.25l1.52.46,1.1-1.65Z"/>
    <path class="cls-2" d="M64.45,188.05c-1.18-4.98,4.52-7.08,8.48-5.27.61.28,2.65,1.82,2.44,2.51-.06.19-1.98,1.58-2.24,1.58-.13,0-.3-.62-.58-.85-1.62-1.36-5.69-1.37-5.01,1.56l-1.33.89-1.76-.42Z"/>
    <path class="cls-12" d="M114.11,2.48c.66,1.27-.46.99-1.31,1.66-1.06.85-1.82,2.18-2.97,2.85-1.46-.33-3.52-.72-4.99-.95-.7-2.63,2.14-2.79,1.9-4.99,2.53.41,4.87.77,7.37,1.43Z"/>
    <path class="cls-7" d="M82.98,186.63c.75,1.54-.32,8.59.53,9.45.52.52,2.29.21,3.03.29.18,3.06.21,3.46-2.97,3.09-1.84-.21-3.28-1.59-3.46-3.43-.27-2.81.23-6.06.01-8.92.11.54.2.73.24,1.43.08,1.37-.06,2.78,0,4.16.01.29-.18.88.24.83-.43-1.53.95-1.28,1.72-2.13s.35-3.21.42-4.41c.02-.38.23-.33.23-.35Z"/>
    <path class="cls-7" d="M140.01,185.44s.21.21.25.57c.1.78-.1,1.72-.01,2.52.11.15,2.52-1.59,2.61-2.14-.14,4.26.1,8.56,0,12.83h-2.85v-13.78Z"/>
    <path class="cls-7" d="M124.09,186.15c.29.03.23.35.25.58.15,1.95-.14,4.1,0,6.07.56-.21.06-1.96.23-2.14.09-.09,1.33.09,1.43,0,.18-.18-.61-2.11,1.18-2.75,1.15-.41.79.32,1.3.39.58.08,2.3.07,2.88,0,.41-.05.32-.4.53-.47.82-.28,2.46-.54,2.19.69-.75.1-1.81-.27-2.38.24-1.26.01-2.55-.06-3.8,0l-.15-.2-.32.2c-.16.03-.42-.13-.48.15v10.07s-3.08,0-3.08,0c.02-1.26-.02-2.54,0-3.8.01-.79.02-1.32,0-2.14-.02-.63-.01-1.27,0-1.9,0-.03.24-.27.25-.58.03-1.47-.04-2.95,0-4.41Z"/>
    <path class="cls-11" d="M67.54,187.58c.39,1.67,6.01,1.5,7.84,4.75l-1.1,1.65-1.52-.46c-2.92-2.13-7.31-1.22-8.32-5.46l1.76.42,1.33-.89Z"/>
    <path class="cls-7" d="M112.45,179.74c.03,6.41-.02,12.84,0,19.25h-1.66c-.4,0-.79,0-1.19,0-.23-.23-.21-.24-.25-.57-.36-3.26.03-7.88.01-11.31.72-.13.46.36.48.82.04,1.13-.14,2.52,0,3.58.08.63.93.29,1.25.1.28-.16.02-.66.65-.46l.24.47c-.1-1.53.15-3.24,0-4.75.05-2.1-.07-4.21,0-6.31.02-.46-.24-.95.48-.82Z"/>
    <path class="cls-11" d="M123.85,175.46c.72-.13.46.36.48.82.11,3.28-.08,6.59,0,9.87.47.08.13-.6.24-.71.08-.09,1.62.87,2.25.96.56.08,1.21-.05,1.79,0l-1.42-.47h8.79c.1.39.05,1.89,0,2.37h-.24l-.24.24v.24c-.44.05-.96-.02-1.43,0v-.24c.27-1.23-1.37-.97-2.19-.69-.21.07-.11.42-.53.47-.58.07-2.3.08-2.88,0-.51-.07-.15-.8-1.3-.39-1.78.63-.99,2.57-1.18,2.75-.09.09-1.33-.09-1.43,0-.18.17.33,1.93-.23,2.14-.13-1.97.16-4.12,0-6.07-.02-.22.04-.55-.25-.58h-.24c.11-3.51-.21-7.21,0-10.69Z"/>
    <path class="cls-2" d="M109.36,181.87c0-2.45,0-4.91,0-7.37h3.09c0,1.74,0,3.49,0,5.23-.72-.13-.46.36-.48.82-.07,2.1.05,4.21,0,6.31-.03-.33-.48-1.06-.24-1.66l-1.9.47c-.03-.99.03-1.99,0-2.98-.02-.46.24-.95-.48-.82Z"/>
    <path class="cls-11" d="M151.65,186.39c.16.23,1.28,1.43,1.54,1.43.18-.6.76-.98,1.07-1.43.71.58,2.29.9,2.14,1.9-.39,1.08-1.92,1.84-1.19,3.09-1.76.36-2.87.99-4.75.48.19-.3.38-.96.64-1.3-.85-.93-1.39-2.24-2.06-3.21.59.07,1.46.67,1.99.26.31-.24-.02-1.07.62-1.21Z"/>
    <path class="cls-11" d="M.3,184.25c.27.93.7.93,1.41.34.3-.25,1.35-2.2,1.44-.82l.27-.44c.11,0,.19.21.21.21.01,1.58-.44,3.17-.24,4.75-.55,1.24-1.52,1.6-2.85,1.43-.04-.21-.43-.48-.49-1.06-.14-1.47.04-2.99.25-4.41Z"/>
    <path class="cls-2" d="M154.27,186.39c.83-1.2,1.55-2.59,2.38-3.8h3.8l-4.04,5.7c.16-1-1.43-1.32-2.14-1.9Z"/>
    <path class="cls-2" d="M151.65,186.39c-.64.14-.31.97-.62,1.21-.53.41-1.4-.2-1.99-.26-1.03-1.49-2.74-2.97-3.33-4.75h3.45c.2,0,1.83,2.45,2.13,2.87.24.33.27.8.37.93Z"/>
    <path class="cls-2" d="M140.01,185.44s-.21-.21-.25-.57c-.09-.71.09-1.55.01-2.28h3.33c-.05,1.07.06,2.16,0,3.23-.02.31-.25.54-.25.58-.09.55-2.5,2.28-2.61,2.14-.09-.8.11-1.74.01-2.52-.04-.36-.25-.54-.25-.57Z"/>
    <path class="cls-11" d="M109.36,181.87c.72-.13.46.36.48.82.03.99-.03,1.99,0,2.98l1.9-.47c-.24.6.21,1.33.24,1.66.15,1.51-.1,3.22,0,4.75l-.24-.47c-.62-.19-.37.3-.65.46-.32.19-1.17.52-1.25-.1-.14-1.06.05-2.45,0-3.58-.02-.46.24-.95-.48-.82,0-1.74,0-3.49,0-5.23Z"/>
    <path class="cls-10" d="M91.54,189.24c-.36,1.27-.2,2.8.24,4.04-1.11-.08-1.75,1.12-2.85.95-.56-1.69-.66-3.48-.37-5.25.04-.21.35-.39.37-.45,1.09-.28,1.61.76,2.61.71Z"/>
    <path class="cls-11" d="M86.31,185.2c-.51.45-2.52.17-3.33.24-.02.39.04.81,0,1.19,0,.02-.21-.03-.23.35-.08,1.2.32,3.6-.42,4.41s-2.15.6-1.72,2.13c-.41.06-.22-.54-.24-.83-.06-1.38.08-2.79,0-4.16l.24-2.85c.83.19,1.65-.18,2.38-.24,0-.16-.01-.32,0-.47,1.05.13,2.42-.29,3.33.24Z"/>
    <path class="cls-10" d="M47.11,188.53c-.42,1.03-.63,2.46-.48,3.56-.51.92-1.67.83-2.61.95-.58-2.54-.5-2.59.24-4.99.85-.47,1.99.19,2.85.48Z"/>
    <path class="cls-2" d="M141.35,175.29c2.07-.1,3.09,2.67,1.26,3.84-3.17,2.03-4.72-3.67-1.26-3.84Z"/>
    <path class="cls-11" d="M105.32,189c-1.2.81-.26,3.27-2.22,2.85-.19-.04-.16-.64-.64-.47.13-1.55-.53-3.67-1.66-4.75,1.4-1.51,2.34,1.35,3.64,1.2.85-.1.44-2.14.87-2.62.02,1.26,0,2.54,0,3.8Z"/>
    <path class="cls-11" d="M60.65,186.39c-.04,1.82.02,3.65,0,5.46-.97-.33-1.03.95-1.91.37-1.15-.76.73-3.06-1.18-2.98,0-.08-.22-.91-.24-.95.63.2,1.83-.39,2.15-.88.39-.6-.19-1.28,1.17-1.02Z"/>
    <path class="cls-2" d="M91.78,193.28c.05.14.44,1.13.48,1.19-.4.67-2.19.74-2.85.48-.06-.13-.29-.15-.48-.71,1.1.17,1.74-1.03,2.85-.95Z"/>
    <path class="cls-2" d="M47.11,193.28c-.95.38-1.45,1.38-2.61,1.19-.23-.62-.29-.64-.48-1.43.94-.12,2.1-.03,2.61-.95.04.26.34.89.48,1.19Z"/>
    <path class="cls-2" d="M123.85,191.14c-.39-1.05-.3-2.58-.25-3.7.02-.52.24-1.05.25-1.29h.24c-.03,1.47.04,2.94,0,4.41,0,.31-.25.54-.25.58Z"/>
    <path class="cls-11" d="M103.18,182.59c.68-.07,1.44.05,2.14,0,.01.16-.01.32,0,.47-.74-.14-2.35.42-2.14-.48Z"/>
    <path class="cls-2" d="M123.85,195.18c-.4-.57-.4-1.57,0-2.14.02.82.01,1.35,0,2.14Z"/>
    <path class="cls-10" d="M134.07,188.53v.24c-.79.03-1.59,0-2.38,0,.56-.51,1.63-.14,2.38-.24Z"/>
    <path class="cls-2" d="M110.78,198.98c-.27.43-.85.34-1.19,0,.4,0,.79,0,1.19,0Z"/>
    <path class="cls-2" d="M40.69,192.57l.24-.95c-.03.54-.21.76-.24.95Z"/>
    <path class="cls-11" d="M105.32,183.77l-.24-.12.24-.35c0,.16,0,.32,0,.48Z"/>
    <path class="cls-10" d="M127.89,188.76c-.16,0-.33-.02-.48,0l.32-.2.15.2Z"/>
    <path class="cls-10" d="M135.97,188.53c-.11.31-.23.21-.48.24v-.24h.48Z"/>
    <path class="cls-6" d="M32.85,135.07c-.17-.21-.2-.43-.24-.48l.24.48Z"/>
    <path class="cls-2" d="M135.97,188.53h-.24v-.24h.24c0,.08.02.18,0,.24Z"/>
    <path class="cls-2" d="M23.82,189.48c.02-.11.23-.2.24-.24l-.24.24Z"/>
    <path class="cls-2" d="M24.06,188.53c.05-.19.23-.22.24-.24l-.24.24Z"/>
    <path class="cls-12" d="M122.43,137.44c-.03-1.32-1.74-1.22-1.43-2.61.82-.06,1.7.08,2.51,0,.31-.03.53-.24.58-.25.47-.04.96.04,1.43,0l.12.23.12-.23c2.31-.18,4.64-.47,6.97-.47,1.11-2.4,2.77-3.88,5.58-3.17,5.18,1.3,4,9.83-2.2,8.85-1.53-.24-2.21-1.95-3.11-2.12-2.81-.54-7.51.29-10.57-.24ZM136.62,133.45c-2.24.49-1.73,4.6,1.27,3.65,2-.64,1.41-4.23-1.27-3.65Z"/>
    <path class="cls-12" d="M104.37,150.03c.18-.7-.16-.59-.44-.87-.91-.89-1.52-.94-.99-2.46,1.88-.12,4.2.22,6.01-.23.13-.03.84-1.52,1.24-1.9,1.94-1.87,5.19-1.61,6.77.59,3.05,4.26-2.1,9.39-6.29,6.29-.45-.33-1.02-1.24-1.48-1.38-.8-.24-3.77-.08-4.82-.05ZM112.62,146.05c-2.25.51-1.26,4.83,1.67,3.57,1.87-.8,1.16-4.21-1.67-3.57Z"/>
    <path class="cls-12" d="M114.82,124.61c1.33-.06,4.84.27,5.78-.04.35-.11,1.64-2.76,3.24-3.18,5.08-1.34,7.93,5.41,3.93,8.21-1.39.97-3.68,1.01-5.1.11-.65-.41-1.16-1.46-1.51-1.71-.21-.15-.57-.02-.64-.06-.02-.01.1-.42-.16-.48-.38-.09-.88.09-1.34-.04-.36-.1-.56-.68-1-.68-.34,0-1.46,1.31-2.46.69-.22-.14-1.42-2.35-.75-2.81ZM124.5,123.95c-2.35.54-1.42,4.38,1.03,3.9,2.69-.53,1.8-4.54-1.03-3.9Z"/>
    <path class="cls-3" d="M186.34,179.74c0-.11-.3-1.19-.37-1.2h-6.99s0-4.62,0-4.62c0-.08.31-.36.24-.59h19.36s.36.33.36.36v4.87c-2.1.08-4.23-.1-6.32-.02-.43.02-.71.25-.8.25-.25.02-.68-.35-.96-.14-.35.27-.17,1.03-.23,1.09-.1.1-1.59-.26-2.02-.26-.78,0-1.48.33-2.26.26Z"/>
    <path class="cls-12" d="M191.81,178.78c-.09,3.92.12,7.86.01,11.78-.01.45-.24.86-.25,1.05-1-.35-.71.87-1.11.96-.95.23-2.75-.2-3.88.23.21-.67-.16-1.24-.24-1.66-.71-3.77.12-7.73,0-11.41.78.07,1.48-.25,2.26-.26.43,0,1.92.36,2.02.26.06-.06-.12-.82.23-1.09.28-.22.71.16.96.14Z"/>
    <path class="cls-12" d="M175.41,180.92c0,3.31.25,6.82.24,10.22-.94-.19-.24,1.09-.5,1.4-.45.54-4.31.01-4.96-.69-.02-3.72-.02-7.45,0-11.17,1.31.7,1.76.04,2.97-.02.81-.04,1.48.24,2.26.25Z"/>
    <path class="cls-4" d="M186.34,191.14c.08.43.45.99.24,1.66,1.13-.43,2.93,0,3.88-.23.4-.1.11-1.31,1.11-.96-.02.39.02.79,0,1.19-.04.86-.17,2.17.24,2.85,0,.67.2,4.51-.36,4.51h-4.99c-.26,0-.34-.58-.37-.82-.31-2.61.32-5.58.25-8.21Z"/>
    <path class="cls-4" d="M175.65,191.14c-.01,2.93,0,5.87,0,8.79l-5.47.24c0-2.77.01-5.55,0-8.32.65.7,4.51,1.23,4.96.69.26-.31-.43-1.59.5-1.4Z"/>
    <path class="cls-3" d="M170.18,180.69c.01-2.45,0-4.91,0-7.37h5.46c0,2.02,0,4.05.01,6.07,0,.53-.25,1.02-.25,1.53-.78-.02-1.45-.29-2.26-.25-1.21.05-1.66.72-2.97.02Z"/>
    <path class="cls-12" d="M191.81,195.65c-.41-.68-.27-1.99-.24-2.85.44.71.23,1.95.24,2.85Z"/>
    <rect class="cls-13" x="169" y="196.84" width=".47" height=".71"/>
    <path class="cls-4" d="M68.96,137.2c.09,0,1.6.31,1.67.35.37.21.58,1.74,1.2,2.13.47.3,2,.23,2.1.75.24,1.18-.9.59-1.29.62-1.13.08-3.01.66-3.45,1.85-.08,0-.16,0-.24,0-.69.01-1.18-.56-1.9.48-1.1.13-2.22.16-3.33.24-.4-.41-1.42-.45-1.19.24-2.99.09-5.71-.4-8.55-.95.82-.46,2.61-3.06,2.04-3.82-.31-.42-1.27.14-1.09-.69,2.81.28,5.35.32,8.17-.03,1.7-.21,4.4-1.21,5.85-1.16Z"/>
    <path class="cls-9" d="M50.79,142.19c.15.08.15.16,0,.24v-.24Z"/>
    <path class="cls-5" d="M124.56,11.99h-.24s-.05-.13.24,0Z"/>
    <path class="cls-9" d="M38.08,190.19c.07.5-.15.96-.24,1.43-.01.08.02.16,0,.24-1.67,6.91-10.63,6.02-11.16-.6-.06-.76-.02-1.53.24-2.26,1.32-3.72,6.18-5.15,9.16-2.39.62.57,1.9,2.8,2.01,3.57Z"/>
    <path class="cls-2" d="M37.84,191.85c.02-.07-.01-.16,0-.24l.23.12-.23.12Z"/>
    <rect class="cls-11" x="126.47" y="182.11" width=".23" height="1.66"/>
    <path class="cls-9" d="M47.11,188.53c1.4-3.47,6.21-4.49,8.91-1.9.12.11,1.26,1.57,1.31,1.66.02.04.23.87.24.95.36,2.94-.52,6.24-3.67,7.14-2.83.81-5.59-.45-6.78-3.1-.13-.3-.44-.92-.48-1.19-.16-1.11.06-2.53.48-3.56Z"/>
    <path class="cls-9" d="M100.8,186.63c1.13,1.09,1.8,3.2,1.66,4.75-.37,4.27-4.6,6.55-8.39,4.47-.34-.18-1.69-1.15-1.83-1.38-.03-.06-.43-1.05-.48-1.19-.43-1.24-.6-2.77-.24-4.04,1.1-3.9,6.29-5.46,9.27-2.61Z"/>
    <polygon class="cls-7" points="135.73 188.53 135.49 188.53 135.73 188.29 135.73 188.53"/>
    <path class="cls-10" d="M99.85,40.5c.39,4.42-.09,8.1-1.26,12.41-.22.82-2.01,5.19-1.83,5.41.37.46.51-.35.59-.47,3.25-4.95,5.36-8.43,9.87-12.36,1.67,2.09,1.73,5.37,4.51,6.42-4.61,2.06-9.72,5.63-13.06,9.39,3.38-1.62,6.56-3.7,10.2-4.77.61-.18,1.43-.17,2.15-.34-1.68,1.23,1.49,1.69,1.19,3.09-.61.19-4.2.53-4.29.86-.55,1.98,1.39,1.67,1.2,3.18-1.8-.17-5.78.25-7.69.51-1.17.16-2.29.62-3.48.68-.06.4.45.22.71.24l.33.2.15-.2c1.19.07,2.37.1,3.56.24-.03,0-.27.22-.57.25-.45.05-1.54-.13-1.77.02-.08.05-.25.95-.5,1.29-.29.4-1.3,1.03-1.67,1.53-2.15-1.2-4.53-.86-6.65.24-.63-.91-.84-2.07-1.38-3.01-.31-.56-1.64-1.99-1.68-2.14-.18-.7,1.14-1.06.58-1.98s-2.17-.08-2.96-.35c-.3-.1-2.64-2.48-2.76-2.74-.26-.58.3-1.57.84-1.89.3.19.74.24,1.07.47,1.82,1.23,3.48,2.69,4.99,4.28.33-.23-.03-.77-.16-1.03-1.68-3.29-5.84-7.06-8.99-8.95.21-.73,1.25-.28,1.56-.7.18-.25.32-1.94.53-2.56.29-.81,1.39-2.46,1.9-3.33.2-.34.38-.63.76-.78,3.98,4.41,6.59,9.95,7.37,15.92.29.38.43,0,.47-.35.08-.61-.01-1.38,0-2.02.4-.44.4-1.7,0-2.14-.01-.32.02-.64,0-.95,1.34-.21,1.07,1.59,2.14,1.66.37-3.37.61-6.7.49-10.11-.04-1.18-.77-4.5-.37-5.34.27-.57,1.32-.78,1.9-.73.98.09,1.03,1.07,2.02.97ZM98.43,61.41c-.33-.17-.63.15-.47.23.33.17.63-.15.47-.23Z"/>
    <path class="cls-6" d="M58.51,101.09l-3.36-1.99c-.53-.6-2.44-1.45-2.71-2.06-.3-.66,1.31-3.2,1.75-3.95.55-.95,4.43-7.01,4.95-7.18.88-.29,4.44,2.29,5.78,2.11-.98-1.14-3.02-2.49-3.82-3.67-.16-.24-.29-.35-.2-.68.05-.19,2.22-2.51,2.58-2.91.8-.87,6.2-6.25,6.79-6.3.27-.02,2.54,1.31,2.67,1.49.11.16.02.34.05.42.72,1.71.92,1.17,1.9,2.26.57.64.66,1.41,1.19,2.02-2.73,3.1-6.06,8.32-7.84,12.12-.92-.17-3.86,1.54-4.41,2.12-.39.42-.29.92-.57,1.34-.25.37-.81.51-1.07.83-.58.7-1.17,2.04-1.66,2.61-.56.65-1.69.55-1.56,1.65-.25.09-.44-.24-.47-.24Z"/>
    <path class="cls-5" d="M108.17,114.87c-.04.66.05,1.3.38,1.88.56.99,1.85.77,1.76,1.92-8.57,3.3-15.2,10.57-22.6,15.77-4.46,3.14-13.12,8.21-18.51,8.46.43-1.19,2.32-1.78,3.45-1.85.38-.03,1.53.57,1.29-.62-.1-.52-1.63-.45-2.1-.75-.62-.39-.82-1.92-1.2-2.13-.07-.04-1.59-.35-1.67-.35,1.89-.92,3.93-1.48,5.86-2.33,11.97-5.31,20.83-15.78,33.34-20ZM73.95,136.02c-1.15.16-1.35.19-1.19,1.43,1.18.16,1.29-.38,1.19-1.43Z"/>
    <path class="cls-10" d="M100.33,107.74c-.04,1.3,1.52,2.47,2.38,3.33-9.14,4.49-17.1,13-26.14,18.3-.71-.73.18-1.76.2-2.49.06-1.91-.61-3.78-2.81-3.69.28-.56.94-.66,1.43-.95.58-.16.49.55.86.68.41.14,1.58.1,1.99-.08.47-.22,2.42-2.37,1.19-2.97,7.27-4.54,12.9-8.71,20.91-12.12Z"/>
    <path class="cls-8" d="M68.25,92.77c-1.45,3.08-2.32,6.62-2.85,9.98l-1.03,1c.03,1.99-.69,1.59-1.72,2.55-2.08,1.95-4.11,4.63-6.15,6.68l-4.17.94c-1.87-.64-3.04-1.13-4.75-2.14-.05-2.05.52-.27,1.11-.28.91,0,.72-1.38,1.16-2.09.67-1.09,2.98-3.14,3.91-4.17l3.09-4.16c.48.09,1.15-.07,1.66,0,.03,0,.22.33.47.24-.13-1.1,1.01-.99,1.56-1.65.49-.58,1.08-1.92,1.66-2.61.27-.32.83-.46,1.07-.83.27-.42.18-.92.57-1.34.55-.59,3.49-2.29,4.41-2.12Z"/>
    <path class="cls-15" d="M84.17,56.18c-.54.32-1.1,1.31-.84,1.89.12.26,2.45,2.64,2.76,2.74.8.27,2.39-.59,2.96.35s-.76,1.28-.58,1.98c.04.15,1.37,1.59,1.68,2.14.54.95.75,2.11,1.38,3.01-2.35,1.21-6.72,4.22-8.79,5.94-.57-.7.4-1.16.58-1.67.61-1.77-.82-2.73-.59-4.14.16-.99,2.23-1.49,1.19-2.98,1.06-.59,3.14-1.63,4.03-2.27.41-.3.15-.43-.23-.58l-.12-.23-.12.23c-4.43-1.58-9.37-2.05-14.02-1.19-.53,0-.87.2-.67-.55.23-.85,1.21-3.14,1.14-3.83-.08-.83-.96-1.22-1.14-1.97s-.27-2.14-.05-2.92c4.57.44,7.59,1.68,11.41,4.04Z"/>
    <path class="cls-8" d="M64.45,33.61c5.12.23,8.95,1.42,13.31,3.8l.24.24c.06.03.18-.03.24,0,.71.96-.36.64-.94,1.08-1.59,1.18-2.49,5.24-2.14,7.11.14.72,1.08,1.43.7,2.5-2.38-.98-4.98-1.52-7.36-2.5.79-.25,1.47.15,1.99-.63l3-.67c-1.57.11-3.32-.15-4.87,0-1,.1-2.18.7-3.09.71-1.37.01-3.39-.76-4.87-.71,1.24-1.24,3.24-1.44,4.75-2.26-.8.04-2.13-.02-2.85.12-.15-1,1.06-1.77,1.52-2.64s1.42-3.65,1.29-4.56c-.09-.61-.88-.93-.91-1.59ZM74.19,46.92c-.26-.26-.73.21-.47.47s.73-.21.47-.47Z"/>
    <path class="cls-6" d="M91.78,22.92l-2.49,2.86c-.41.8.25,1.6.08,2.43s-1.15,2.25-1.86,2.79c-1.02-.8-2.82-1.25-3.69-1.89-.59-.44-1.56-1.97-2.13-2.62-.45-.51-2.09-1.87-2.26-2.26-.23-.52.27-.29.49-.26.62.08,1.31.33,1.92.46.24.05.72.38.67-.07-1.5-1.03-3.65-1.29-5.16-2.09-.57-.31-.98-.92-1.49-1.24,1.06-1.09,2.89-2.67,2.85-4.28,5.37,1.02,8.99,2.4,13.07,6.18ZM82.86,24.58v.24c.15-.08.15-.16,0-.24Z"/>
    <path class="cls-6" d="M64.45,33.61c.03.66.82.98.91,1.59.14.91-.81,3.67-1.29,4.56s-1.67,1.63-1.52,2.64c-.95.18-4.26,1.66-4.63,1.66h-7.01c.87-.94,2.3-1.66,3.56-1.9.06-.39-1.01-.27-1.19-.23-.57-.57-.65-2.21-.48-2.92.1-.39,1.2-.08.9-1.89s-1.67-.67-2.08-2.08c4.57-1.31,8.04-1.64,12.83-1.43Z"/>
    <path class="cls-15" d="M96.29,28.62c2.22,4,3.16,7.32,3.56,11.88-.99.1-1.03-.88-2.02-.97-.58-.05-1.63.17-1.9.73-.4.84.32,4.16.37,5.34.13,3.4-.11,6.74-.49,10.11-1.07-.07-.79-1.87-2.14-1.66-.27-4.5-1.58-9.64-3.33-13.78,1.19.28,1.26-1.21,2.14-.24.19-1.04-.29-.59-.47-.71v-.24c.43-.77,2.54-1.16,2.62-2.02.13-1.33-2.07-4.53-1.93-5.43.75-.57,1.72-1.02,2.4-1.69.53-.53.57-1.27,1.18-1.31Z"/>
    <path class="cls-5" d="M65.4,102.75c-.12.76-.48,2.34-.48,2.97v4.51c0,.55.33,2.57.48,3.21-1.57.2-2.69.93-3.81,2.01-2.36,2.26-3.78,4.76-5.7,7.14-.2.24-.18.73-.26.8-.29.26-1.92-.3-2.34.27-1.22-.12-1.91-.25-3.09-.48.36-.49,1.73-.79,1.93-1.04.27-.34.15-.93.35-1.32.57-1.11,2.64-2.99,1.31-4.38-.35-.36-1.65-.03-1.45-1.34.47.01.95,0,1.43,0,.35.41,2.92.45,2.37-.24-.15-.02-.33.03-.47,0-1.34-.24-2.07-.52-3.33-.95l4.17-.94c2.04-2.05,4.08-4.73,6.15-6.68,1.03-.96,1.75-.56,1.72-2.55l1.03-1Z"/>
    <path class="cls-6" d="M64.93,52.62s.47.25.72.11c.16.67.28,2.08.25,2.86-.08,2.6-.75,3.98-1.33,6.3-.21.84-.17,1.58-.36,2.38-.5.31-4.53,2.11-4.75,1.9.08-.59.46-1.23.76-1.73.11-.19,1.77-2.25.79-1.83-.16.07-2.21,2.06-2.5,2.37-1.38-1.08-1.55-2.72-2.09-4.2-.31-.83-1.09-1.57-.96-2.5.1-.69.89-1.42-.04-2.08,2.56-1.46,6.41-3.7,9.5-3.56Z"/>
    <path class="cls-8" d="M133.12,59.51c-.73.44-2.12.24-2.75.7s-.57,1.82-1.16,2.4-2.03.82-2.74,1.53c-1,1-.87,2.18-.71,3.45-.54-.24-1.31-.32-1.79-.71-.3-.24-.48-.76-.82-1.08-.71-.68-2.47-2.67-3.22-2.96-1.05-.41.56,1.58.64,1.73.15.26.8,1.46.66,1.59-1.5-.44-3-.92-4.52-1.31-.24-.06-.42-.35-.47-.36-.32-.47-.28-.86-.06-1.36.12-.28,2.87-3.26,3.09-3.33.48-.16,1.27.03,1.67-.35.7-.66.88-2.84,1.25-3.74,4.63.63,6.93,1.32,10.93,3.8ZM118.98,62.36c-.23.17.13.33.24.47.24-.16-.11-.31-.24-.47Z"/>
    <path class="cls-4" d="M134.78,117.25c-.36,1.12-1.75,1.55-1.66,2.85-2.07-.6-3.89-1.83-6-2.44-5.62-1.61-11.41-1.07-16.81,1.01.08-1.15-1.2-.94-1.76-1.92-.33-.58-.42-1.22-.38-1.88,8.3-2.8,14.67-2.62,22.8.6,1.29.51,2.43,1.48,3.81,1.77Z"/>
    <path class="cls-6" d="M139.53,64.97c.07.09.15.17.24.24.01.08-.01.16,0,.24-.64.93-1.8,1.56-2.49,2.38-.47.56-1.49,1.96-1.92,2.59-.29.42-.44.65-.34,1.2-.09-.06-.58,0-.87-.18-2.07-1.31-2.23-2.22-3.76-3.86-.52-.56-1.52-1.89-2.26-1.54.86.86,1.59,2.02,1.9,3.21-.19.18-3.74-1.42-4.28-1.66-.16-1.27-.28-2.44.71-3.45.71-.72,2.13-.93,2.74-1.53s.52-1.94,1.16-2.4,2.02-.26,2.75-.7c2.37,1.48,4.69,3.2,6.42,5.46Z"/>
    <path class="cls-8" d="M83.93,65.45c1.04,1.49-1.03,1.99-1.19,2.98-.23,1.4,1.2,2.37.59,4.14-.18.52-1.15.98-.58,1.67-1.9,1.57-5.03,4.57-6.65,6.42-.53-.6-.62-1.38-1.19-2.02-.98-1.09-1.18-.55-1.9-2.26l1.19-.11c-.37-.56-2.36-2.95-2.03-3.45,3.5-2.69,7.24-5.07,11.09-7.23.25-.14.59-.08.69-.14Z"/>
    <path class="cls-6" d="M133.59,39.07c-.39.69.1,1.7-.03,2.2s-1.16.92-1.34,1.77c-.17.76.01,1.66-.05,2.45-.34-.1-1.78-.49-1.9,0,.84.27,1.92.63,2.37,1.43-1.42-.05-3.01.45-4.39.49-1.66.05-2.88-1.06-4.4-1.44.34-1.33-1.01-.91-1.63-1.81-.66-.96-.82-2.82-.39-3.89.32-.81,1.31-1.09,1.07-2.13,3.97-.47,6.9-.14,10.69.95Z"/>
    <path class="cls-15" d="M85.83,43.59c-.38.15-.56.45-.76.78-.51.87-1.61,2.51-1.9,3.33-.22.61-.35,2.31-.53,2.56-.31.42-1.35-.03-1.56.7-1.5-.9-3.61-1.95-5.23-2.61.38-1.07-.57-1.79-.7-2.5-.35-1.87.54-5.93,2.14-7.11.58-.43,1.65-.12.94-1.08,3.16,1.85,5.11,3.18,7.6,5.94Z"/>
    <path class="cls-14" d="M50.67,69.25c-1.78,4.13-6.16,6.06-8.91,9.5l-2.73,3.33c.18-6.31,3.06-12.97,6.89-17.94.23-.29.58-.44.71-.59,1.44.38.96,1.21,1.32,2.13.48,1.25,2.05,2.42,2.72,3.57Z"/>
    <path class="cls-8" d="M64.21,126.75c1.08.5-.1,1.71-.22,2.51-.16,1.08.17,2.17-.26,3.31-.25.66-1.26,1.74-1.89,2.03-2.91,1.32-8.43,0-11.41-.95.09-1.14,1.12-.51,1.4-.74.1-.08.55-2.02.76-2.44.51-1.03,1.5-1.37,1.16-2.76,2.99.17,7.53-.25,10.45-.95Z"/>
    <path class="cls-15" d="M122.19,55.71c-.37.91-.55,3.08-1.25,3.74-.4.38-1.19.2-1.67.35-.22.07-2.96,3.05-3.09,3.33-.22.5-.26.9.06,1.36-1.7-.4-5.4-1.02-7.13-1.19.18-1.51-1.75-1.2-1.2-3.18.09-.33,3.68-.67,4.29-.86.3-1.4-2.87-1.85-1.19-3.09,4.68-1.11,6.39-1.12,11.17-.48Z"/>
    <path class="cls-8" d="M91.54,38.6c.08.11.08.29.24.48.08.09.13.16.24.24.18.13.66-.32.47.71-.87-.97-.95.51-2.14.24-.18-.43-1.91-3.07-1.66-3.33,1,.36,1.96,1.08,2.85,1.66Z"/>
    <path class="cls-8" d="M91.78,22.92c1.89,1.75,3.26,3.44,4.51,5.7-.61.04-.65.78-1.18,1.31-.68.67-1.64,1.12-2.4,1.69-.14.9,2.05,4.1,1.93,5.43-.08.86-2.2,1.25-2.62,2.02h-.24c0-.18-.09-.38-.24-.48-1.74-2.64-2.72-2.44-4.28-4.15-.27-.29-1.55-2.5-1.66-2.86-.09-.32.03-.44.35-.35.35.11,2.4,1.29,2.5,1.18.32-.35-.7-1.23-.95-1.42.71-.54,1.68-1.92,1.86-2.79s-.49-1.64-.08-2.43l2.49-2.86Z"/>
    <path class="cls-15" d="M116.96,39.79c-.14.12-.27.23-.47.24.51,1.14,1.52,2.06,1.6,3.5.05.91-.59,1.29-.65,1.85-.09.88.61,1.87.7,2.72-.87-.09-2.19-.05-3.09,0-.14,0-.43-.04-.47,0-.29.4-.08,2.11.23,2.61-.91.33-2.23.8-3.09,1.19-2.79-1.04-2.85-4.33-4.51-6.42.4-.35.62-.78.96-1.05,2.47-1.95,5.69-4.04,8.78-4.65Z"/>
    <path class="cls-8" d="M72.77,52.14c-.22.78-.13,2.17.05,2.92s1.06,1.14,1.14,1.97c.07.68-.91,2.97-1.14,3.83-.2.75.14.55.67.55-2.07.38-4.32,1.45-6.41,1.9l2.26-3.08c-1.22.64-2.28,1.49-3.34,2.36-.74.61-.97,1.17-1.78,1.67.18-.8.15-1.54.36-2.38.58-2.32,1.24-3.7,1.33-6.3.02-.78-.09-2.19-.25-2.86-.25.13-.68-.11-.72-.11,2.49-.72,5.27-.72,7.84-.48Z"/>
    <path class="cls-12" d="M139.53,120.81c.16-.88-.72-.27-1.14-.53-.35-.21-.24-1.06-1.6-1.15-.65-.04-2.43.31-2.49,1.2-.37-.08-.86-.14-1.19-.24-.09-1.3,1.3-1.73,1.66-2.85,2.47.52,5.17.09,7.7.25,1.06-4.11,6.88-4.51,8.47-.62,1.81,4.41-3.23,8.3-6.88,5.45-.47-.36-1.13-1.41-1.37-1.48-.61-.21-2.35-.01-3.17-.04ZM146.12,116.82c-2.06.61-1.45,4.29,1.03,3.89,2.64-.43,1.86-4.75-1.03-3.89Z"/>
    <path class="cls-6" d="M114.82,73.29c2.01,3.31,2.46,4.68,3.09,8.55-1.09.17-3.39.67-4.01,1.57s0,1.85-1.69,1.52c-.17-1.52-.4-3.02-.72-4.51l-.48,4.16-.47.36c-.17-1.79-2.56-4.04-2.98-5.45-.26-.89.02-1.79-.11-2.62,1-.16,2.75-.77,3.63-1.24.7-.38,1.15-1.19,1.95-1.62.63-.33,1.24-.34,1.79-.71Z"/>
    <path class="cls-15" d="M111.73,69.25c-1.92.24-3.59,2.4-4.34,4.1-.16.36-.04.78-.65.65-.14-.37-.44-1.21-.71-1.19v4.28c-1.56-1.77-2.59-3.93-4.15-5.71-.8-.91-2.69-2.77-3.69-3.32.37-.5,1.38-1.14,1.67-1.53.24-.34.42-1.23.5-1.29.24-.16,1.32.03,1.77-.02.3-.03.54-.25.57-.25,3.43-.09,6.68,2.03,9.03,4.28Z"/>
    <path class="cls-15" d="M67.3,118.2c.2.81-.76,1.09-.9,1.59-.17.59.17,1.79-.28,2.11-.11.08-2.16-.19-2.63.21l-1.89,1.31c-3.08.49-5.24.53-8.32.24.42-.57,2.05,0,2.34-.27.08-.07.06-.55.26-.8,1.92-2.38,3.34-4.88,5.7-7.14,1.13-1.08,2.25-1.81,3.81-2.01.19.84,1.43,4.15,1.9,4.75Z"/>
    <path class="cls-5" d="M120.05,103.7s-.19.19-.38.22c-.45.06-1.18-.1-1.48.07-.36.2-1.39,2.02-.72,2.53,1.17.74,3.16-1.94,3.29.27-5.39-.11-13.21,1.89-18.06,4.28-.85-.86-2.41-2.02-2.38-3.33,4.49-1.91,8.94-3.58,13.9-4.04h5.82Z"/>
    <path class="cls-3" d="M51.62,35.03c.42,1.41,1.78.25,2.08,2.08s-.8,1.49-.9,1.89c-.17.71-.09,2.35.48,2.92-1.53.3-3.26,1.37-4.7,1.84s-2.88.67-4.33,1.02c-.16-1.06.91-.63,1.4-1.57.28-.54.18-1.11.39-1.51.24-.46,1.02-.43,1.08-1.07.03-.26-.61-1.81-.78-2.09-.28-.46-.92-.48-.9-1.12,2.22-1.09,3.79-1.69,6.18-2.38Z"/>
    <path class="cls-3" d="M141.91,43.59c-1.02.79-1.76,2.28-1.66,3.56-1.4-.23-3.26-.05-4.62-.25-1.02-.15-2.44-1.11-3.46-1.41.06-.78-.12-1.68.05-2.45.19-.84,1.22-1.28,1.34-1.77s-.36-1.51.03-2.2c3.75,1.08,5.34,2.28,8.32,4.51Z"/>
    <path class="cls-15" d="M73.95,123.19c2.2-.09,2.87,1.78,2.81,3.69-.02.73-.91,1.75-.2,2.49-.08.05-.23.35-.54.52-2.42,1.37-5.3,2.8-8.02,3.28.57-.51.55-1.02,1.06-1.43.97-.79,1.86.09,1.5-1.48-.22-.94-.51-2.08-.77-3.03-.2-.74-.94-1.15-1.08-1.89,1.32-.48,4.06-2.09,5.23-2.14Z"/>
    <path class="cls-6" d="M56.85,101.09l-3.09,4.16c-.93,1.03-3.24,3.08-3.91,4.17-.44.71-.25,2.08-1.16,2.09-.59,0-1.16-1.77-1.11.28-.07-.04-.31.07-.44-.02.37-4.38,2.23-8.5,3.78-12.57,1.9.44,4.06,1.54,5.93,1.9Z"/>
    <path class="cls-4" d="M120.05,103.7c1.73-.13,3.94.24,5.64.63,4.88,1.12,9.52,3.61,12.89,7.33-.18.34-.62,0-.84-.11-5.32-2.6-10.94-4.64-16.98-4.76-.13-2.21-2.12.47-3.29-.27-.66-.51.37-2.33.72-2.53.3-.17,1.02,0,1.48-.07.19-.03.34-.22.38-.22Z"/>
    <path class="cls-8" d="M122.9,38.12c.23,1.05-.75,1.32-1.07,2.13-.43,1.08-.27,2.94.39,3.89.62.9,1.97.49,1.63,1.81-.25-.06-1.04-.14-1.37-.17-.26-.03-.81-.28-.76.17.89.31,2.06.79,2.79,1.36.16.13.65.18.3.54-.14.15-3.55.91-3.92.91-.8,0-1.88-.58-2.73-.67-.09-.86-.79-1.84-.7-2.72.06-.56.7-.94.65-1.85-.08-1.44-1.09-2.36-1.6-3.5.2,0,.33-.12.47-.24,1.24-1.09,4.23-1.46,5.94-1.66Z"/>
    <path class="cls-3" d="M46.39,126.04c-.19,1.84.26.91,1.27,1.22.68.21-.24,2.67-.5,3.22-.24.5-.75.77-1,1.26-4.79-2.83-8.45-6.7-11.41-11.4.45-.07.7.03,1.08.23.95.49,2.24,1.68,3.37,2.34,2.28,1.32,4.72,2.26,7.2,3.14Z"/>
    <path class="cls-5" d="M68.73,125.32c.13.74.88,1.15,1.08,1.89.25.96.55,2.09.77,3.03.37,1.57-.52.69-1.5,1.48-.51.41-.49.92-1.06,1.43-1.23,1.1-4.49,1.47-6.18,1.43.64-.29,1.64-1.36,1.89-2.03.43-1.13.1-2.23.26-3.31.12-.8,1.3-2.01.22-2.51,1.28-.3,3.25-.96,4.51-1.43Z"/>
    <path class="cls-3" d="M143.81,72.1c-.72.6-.94-.42-1.55-.48-1.59-.17-2.18,2.37-2.01,3.57-1.66-.81-3.19-1.96-4.74-2.99-.26-.17-.41-.52-.48-.57-.1-.55.05-.78.34-1.2.43-.63,1.46-2.04,1.92-2.59.69-.82,1.85-1.46,2.49-2.38,1.59,1.5,2.89,3.79,3.85,5.78.16.32.11.7.18.87Z"/>
    <path class="cls-8" d="M52.33,115.11c-.2,1.31,1.1.98,1.45,1.34,1.33,1.39-.75,3.27-1.31,4.38-.2.38-.07.98-.35,1.32-.2.25-1.57.55-1.93,1.04-.94-.18-3.17-.32-3.8-.95l-.24-.24c-.13-.57-.01-1.92,0-2.61,3.14.65,2.15-.09,2.77-2.1.24-.79,1.15-1.22,1.03-2.18.72.09,1.61-.02,2.38,0Z"/>
    <path class="cls-6" d="M46.39,126.04c1.78.63,5.72,1.57,7.37,1.66.34,1.39-.65,1.73-1.16,2.76-.21.42-.66,2.36-.76,2.44-.28.23-1.31-.41-1.4.74-2.08-.66-2.38-.78-4.28-1.9.25-.49.76-.76,1-1.26.27-.55,1.18-3.01.5-3.22-1.01-.32-1.46.62-1.27-1.22Z"/>
    <path class="cls-8" d="M111.73,69.25c1.71,1.64,1.91,2.1,3.09,4.04-.55.37-1.16.37-1.79.71-.8.42-1.25,1.24-1.95,1.62-.88.47-2.63,1.08-3.63,1.24-.13-.87-.41-2.03-.71-2.85.61.13.49-.29.65-.65.75-1.7,2.42-3.87,4.34-4.1Z"/>
    <path class="cls-3" d="M117.91,81.84c.45,2.73.53,3.6.24,6.42-1.02-.54-1.73-.85-2.91-.42-.93.34-1.04,1.7-2.08,1.84-.79-2.39-.67-2.26-.95-4.75,1.69.34,1.09-.63,1.69-1.52s2.92-1.41,4.01-1.57Z"/>
    <path class="cls-14" d="M143.81,72.1s.31.16.42.41c1.24,2.96,2.2,6.35,2.2,9.57l-2.25-2.85-3.7-3.43c-.18-.17-.19-.38-.22-.6-.17-1.2.42-3.74,2.01-3.57.61.06.83,1.09,1.55.48Z"/>
    <path class="cls-14" d="M78.71,16.74c.04,1.6-1.79,3.19-2.85,4.28-1.25-.77-2.53-1.51-3.8-2.26l-4.76-2.25c3.39-.6,7.11-.71,10.52-.19.41.06.74.4.88.42Z"/>
    <path class="cls-14" d="M118.15,88.26c-.34,3.29-1.14,6.68-2.97,9.5-.46-2.77-1.14-5.41-2.02-8.08,1.03-.14,1.15-1.5,2.08-1.84,1.18-.43,1.89-.12,2.91.42Z"/>
    <path class="cls-14" d="M141.91,43.59c1.89,1.42,3.15,2.28,4.75,4.16.19.22,1.36,1.62,1.19,1.77-.91-.29-1.75-.73-2.67-1.01-1.34-.41-3.64-1.15-4.93-1.36-.09-1.29.65-2.77,1.66-3.56Z"/>
    <path class="cls-6" d="M49.96,115.11c.12.95-.79,1.38-1.03,2.18-.62,2.01.37,2.75-2.77,2.1.01-.7.14-4.47.34-4.76.43-.64,2.82.41,3.46.49Z"/>
    <path class="cls-10" d="M67.3,118.2s.28-.03.38.09c.77.83,1.61,1.67,2.81,1.82.28.04.17.31.02.48-.79.91-7.44,2.61-8.92,2.85l1.89-1.31c.47-.41,2.52-.14,2.63-.21.45-.32.11-1.52.28-2.11.15-.51,1.1-.78.9-1.59Z"/>
    <path class="cls-15" d="M79.42,119.86c1.23.6-.72,2.75-1.19,2.97-.41.19-1.58.22-1.99.08-.37-.12-.28-.83-.86-.68,1.34-.79,2.72-1.55,4.04-2.38Z"/>
    <path class="cls-8" d="M115.06,48.1c.18.26,3.99.95,3.33,1.66-1.17.27-2.44.55-3.56.95-.31-.5-.52-2.21-.23-2.61.03-.05.33,0,.47,0Z"/>
    <path class="cls-4" d="M134.31,120.33c.06-.89,1.84-1.25,2.49-1.2,1.35.09,1.25.94,1.6,1.15.43.25,1.3-.35,1.14.53-1.99-.07-3.24-.06-5.23-.48Z"/>
    <path class="cls-6" d="M56.61,67.35c-1.39-.6.74-2.26.71-.95-.24.25-.39.65-.71.95Z"/>
    <path class="cls-5" d="M68.96,142.91c-.52.45-1.27.4-1.9.48.72-1.03,1.21-.46,1.9-.48Z"/>
    <path class="cls-6" d="M55.66,114.87c.15.03.32-.02.47,0,.55.68-2.02.65-2.37.24.59,0,1.51.19,1.9-.24Z"/>
    <path class="cls-5" d="M63.74,143.62c-.21.01-.61.22-1.19.24-.23-.69.79-.65,1.19-.24Z"/>
    <path class="cls-15" d="M93.68,57.13c.02-.71.02-1.43,0-2.14.4.44.4,1.7,0,2.14Z"/>
    <path class="cls-15" d="M99.14,64.73l-.15.2-.33-.2c.16,0,.32,0,.48,0Z"/>
    <path class="cls-10" d="M87.74,62.6c-.07-.03-.17.03-.24,0l.12-.23.12.23Z"/>
    <path class="cls-3" d="M139.77,65.21c-.09-.07-.17-.15-.24-.24.06.08.23.18.24.24Z"/>
    <path class="cls-14" d="M45.44,37.41c-.02.64.62.66.9,1.12.17.27.8,1.82.78,2.09-.06.64-.84.62-1.08,1.07-.21.4-.11.97-.39,1.51-.49.94-1.56.51-1.4,1.57-4.01.97-7.99,1.77-11.88,3.21,3.43-4.55,7.96-8.08,13.06-10.58Z"/>
    <path class="cls-3" d="M55.42,56.18c.93.67.14,1.39.04,2.08-.13.94.65,1.67.96,2.5.55,1.49.71,3.12,2.09,4.2-.36.39-.69.9-1.19,1.43.03-1.31-2.1.35-.71.95-1.44,1.32-3.39,2.16-5.11,3.08l1.07-2.84-1.9,1.66c-.67-1.15-2.24-2.33-2.72-3.57-.35-.92.12-1.75-1.32-2.13,3.14-3.8,4.52-4.93,8.79-7.37Z"/>
    <path class="cls-4" d="M125.51,134.59c.08,0,.16,0,.24,0l-.12.23-.12-.23Z"/>
    <path class="cls-6" d="M46.39,122.23c-.07-.07-.21-.12-.24-.24l.24.24Z"/>
    <path class="cls-15" d="M77.99,37.65l-.24-.24c.1.05.16.19.24.24Z"/>
    <path class="cls-1" d="M136.62,133.45c2.68-.58,3.27,3.01,1.27,3.65-2.99.95-3.51-3.16-1.27-3.65Z"/>
    <path class="cls-1" d="M112.62,146.05c2.84-.64,3.54,2.77,1.67,3.57-2.93,1.26-3.92-3.06-1.67-3.57Z"/>
    <path class="cls-1" d="M124.5,123.95c2.83-.65,3.71,3.37,1.03,3.9-2.45.48-3.37-3.36-1.03-3.9Z"/>
    <rect class="cls-1" x="178.5" y="188.77" width=".47" height=".95"/>
    <path class="cls-1" d="M178.97,190.67c.26.26-.21.73-.47.47s.21-.73.47-.47Z"/>
    <path class="cls-9" d="M98.43,61.41c.16.08-.14.4-.47.23-.16-.08.14-.4.47-.23Z"/>
    <path class="cls-9" d="M104.84,6.05c1.47.23,3.53.62,4.99.95,4.88,1.09,9.94,2.94,14.49,4.99h.24c.29.13.64.32.95.48,4.2,2.04,9.37,5.23,13.07,8.08,31.99,24.62,37.65,70.62,16.39,104.07-6.52,10.26-16.86,20.08-27.56,25.9-14.44,7.84-31.69,10.57-47.72,6.25l-2.42-.79c4.01-.02,7.98-.73,11.82-1.84,5.41-1.56,9.42-3.91,15.26-4.1,1.05-.03,4.02-.19,4.82.05.46.14,1.02,1.04,1.48,1.38,4.2,3.09,9.34-2.04,6.29-6.29-1.58-2.2-4.83-2.47-6.77-.59-.4.38-1.11,1.87-1.24,1.9-1.82.45-4.13.12-6.01.23-1.54.1-3.01.6-4.4.71-.25.02-.65.14-.59-.23,4.81-2.59,7.99-7.85,13.54-9.15,3.57-.84,7.33.04,10.93-.59,3.06.54,7.75-.29,10.57.24.9.17,1.58,1.88,3.11,2.12,6.2.98,7.38-7.55,2.2-8.85-2.81-.7-4.47.78-5.58,3.17-2.33,0-4.65.28-6.97.47-.08,0-.16,0-.24,0-.47.04-.96-.04-1.43,0-4.12-.15-9.04-.7-13.08.11-5.91,1.19-9.59,5.94-14.27,9.25-10.04,7.11-22.62,10.23-34.43,5.49,1.13-.11,2.31.31,3.43.37,12.55.65,21.54-3.4,31.13-10.95,4.7-3.7,10.46-10.25,16.67-10.89,2.23-.23,4.72.11,6.98-.03.06.04.43-.09.64.06.35.25.86,1.3,1.51,1.71,1.42.9,3.71.87,5.1-.11,4-2.8,1.15-9.54-3.93-8.21-1.59.42-2.89,3.06-3.24,3.18-.94.31-4.45-.02-5.78.04-11,.46-17.19,8.39-25.92,13.88-9.36,5.89-21.22,9.62-32.29,6.55-1.02-.28-4.23-1.71-5.23-2.26-.31-.17-.4-.42.12-.36.68.09,1.75.33,2.5.48,2.85.55,5.56,1.04,8.55.95.57-.02.98-.22,1.19-.24,1.1-.07,2.23-.1,3.33-.24.63-.08,1.38-.03,1.9-.48.08,0,.16,0,.24,0,5.39-.25,14.04-5.32,18.51-8.46,7.4-5.2,14.03-12.48,22.6-15.77,5.4-2.08,11.19-2.63,16.81-1.01,2.11.61,3.93,1.83,6,2.44.32.09.82.16,1.19.24,1.99.41,3.24.41,5.23.48.82.03,2.56-.17,3.17.04.23.08.9,1.12,1.37,1.48,3.65,2.84,8.69-1.04,6.88-5.45-1.6-3.89-7.41-3.49-8.47.62-2.53-.16-5.22.27-7.7-.25-1.38-.29-2.52-1.26-3.81-1.77-8.13-3.22-14.5-3.4-22.8-.6-12.52,4.22-21.37,14.69-33.34,20-1.93.86-3.97,1.41-5.86,2.33-1.46-.05-4.15.95-5.85,1.16-2.82.35-5.35.31-8.17.03-.97-.1-6.14-1.12-6.42-.95l-6.4-3.23c-1.58-1.14-3.64-2.39-5.01-3.66-4.63-4.31-9.42-12.38-11.88-18.06-9.38-21.61-8.55-46.28,2.14-67.24C38.73,23,62.59,7,87.74,5.33c5.2-.34,11.96-.08,17.11.71ZM78.71,16.74c-.13-.03-.47-.36-.88-.42-3.42-.52-7.13-.41-10.52.19l4.76,2.25c1.27.75,2.54,1.49,3.8,2.26.52.32.92.93,1.49,1.24,1.51.8,3.65,1.07,5.16,2.09.06.46-.43.12-.67.07-.62-.13-1.31-.38-1.92-.46-.22-.03-.72-.26-.49.26.17.38,1.81,1.75,2.26,2.26.57.65,1.54,2.19,2.13,2.62.87.65,2.67,1.1,3.69,1.89.25.19,1.27,1.08.95,1.42-.1.11-2.15-1.08-2.5-1.18-.32-.1-.44.03-.35.35.11.36,1.39,2.57,1.66,2.86,1.57,1.72,2.54,1.52,4.28,4.15-.89-.58-1.85-1.3-2.85-1.66-.25.26,1.48,2.9,1.66,3.33,1.75,4.14,3.06,9.28,3.33,13.78.02.31-.01.63,0,.95.02.71.02,1.43,0,2.14-.01.65.08,1.41,0,2.02-.04.35-.18.74-.47.35-.77-5.97-3.38-11.51-7.37-15.92-2.49-2.76-4.45-4.09-7.6-5.94-.06-.03-.18.03-.24,0-.08-.04-.14-.19-.24-.24-4.36-2.38-8.18-3.57-13.31-3.8-4.79-.22-8.26.12-12.83,1.43-2.39.68-3.95,1.29-6.18,2.38-5.1,2.5-9.63,6.03-13.06,10.58,3.88-1.44,7.87-2.24,11.88-3.21,1.45-.35,2.89-.55,4.33-1.02s3.17-1.54,4.7-1.84c.18-.03,1.25-.16,1.19.23-1.26.24-2.69.96-3.56,1.9h7.01c.37,0,3.68-1.48,4.63-1.66.72-.14,2.05-.08,2.85-.12-1.51.82-3.51,1.01-4.75,2.26,1.49-.05,3.5.72,4.87.71.91,0,2.09-.61,3.09-.71,1.55-.15,3.3.11,4.87,0l-3,.67c-.52.78-1.19.38-1.99.63,2.39.97,4.98,1.52,7.36,2.5,1.62.67,3.72,1.71,5.23,2.61,3.15,1.89,7.31,5.66,8.99,8.95.13.26.49.8.16,1.03-1.51-1.59-3.17-3.06-4.99-4.28-.33-.22-.77-.28-1.07-.47-3.81-2.36-6.83-3.6-11.41-4.04-2.57-.24-5.35-.24-7.84.48-3.1-.13-6.94,2.1-9.5,3.56-4.27,2.43-5.65,3.56-8.79,7.37-.13.16-.48.3-.71.59-3.83,4.96-6.72,11.63-6.89,17.94l2.73-3.33c2.75-3.44,7.13-5.37,8.91-9.5l1.9-1.66-1.07,2.84c1.72-.92,3.67-1.77,5.11-3.08.32-.3.47-.7.71-.95.5-.52.82-1.04,1.19-1.43.29-.31,2.34-2.31,2.5-2.37.98-.42-.68,1.64-.79,1.83-.3.51-.68,1.15-.76,1.73.22.21,4.25-1.59,4.75-1.9.81-.5,1.04-1.06,1.78-1.67,1.05-.87,2.12-1.73,3.34-2.36l-2.26,3.08c2.09-.45,4.34-1.51,6.41-1.9,4.65-.86,9.59-.39,14.02,1.19.07.03.17-.03.24,0,.38.15.64.29.23.58-.89.64-2.97,1.68-4.03,2.27-.1.05-.44,0-.69.14-3.85,2.16-7.59,4.54-11.09,7.23-.32.5,1.67,2.89,2.03,3.45l-1.19.11c-.03-.08.07-.26-.05-.42-.13-.18-2.41-1.52-2.67-1.49-.59.05-5.99,5.43-6.79,6.3-.36.39-2.53,2.72-2.58,2.91-.09.33.04.44.2.68.8,1.18,2.84,2.53,3.82,3.67-1.34.18-4.9-2.4-5.78-2.11-.53.17-4.41,6.23-4.95,7.18-.44.76-2.05,3.29-1.75,3.95.27.61,2.18,1.46,2.71,2.06l3.36,1.99c-.52-.07-1.18.09-1.66,0-1.87-.36-4.03-1.45-5.93-1.9-1.56,4.07-3.42,8.19-3.78,12.57.13.09.38-.02.44.02,1.71,1.01,2.88,1.5,4.75,2.14,1.26.43,1.98.71,3.33.95-.39.42-1.31.23-1.9.24-.47,0-.95.01-1.43,0-.76-.02-1.65.09-2.38,0-.64-.08-3.03-1.13-3.46-.49-.2.29-.33,4.07-.34,4.76s-.13,2.04,0,2.61c.03.12.16.16.24.24.63.63,2.86.77,3.8.95,1.17.23,1.87.36,3.09.48,3.08.29,5.24.26,8.32-.24,1.48-.24,8.12-1.94,8.92-2.85.14-.17.25-.44-.02-.48-1.19-.15-2.03-.99-2.81-1.82-.11-.12-.36-.06-.38-.09-.48-.61-1.71-3.92-1.9-4.75-.14-.64-.48-2.66-.48-3.21v-4.51c0-.63.36-2.21.48-2.97.53-3.36,1.4-6.9,2.85-9.98,1.78-3.8,5.11-9.02,7.84-12.12,1.63-1.84,4.75-4.84,6.65-6.42,2.07-1.72,6.44-4.73,8.79-5.94,2.12-1.09,4.5-1.44,6.65-.24,1,.56,2.89,2.42,3.69,3.32,1.56,1.78,2.6,3.93,4.15,5.71v-4.28c.27-.02.57.81.71,1.19.31.82.58,1.98.71,2.85s-.15,1.74.11,2.62c.42,1.41,2.81,3.66,2.98,5.45l.47-.36.48-4.16c.31,1.5.54,2.99.72,4.51.28,2.49.16,2.37.95,4.75.88,2.66,1.56,5.3,2.02,8.08,1.83-2.82,2.63-6.21,2.97-9.5.29-2.81.21-3.68-.24-6.42-.63-3.87-1.08-5.25-3.09-8.55-1.18-1.94-1.38-2.4-3.09-4.04-2.35-2.25-5.6-4.37-9.03-4.28-1.19-.14-2.37-.17-3.56-.24-.16,0-.32,0-.48,0-.26-.02-.77.17-.71-.24,1.19-.06,2.31-.52,3.48-.68,1.91-.26,5.89-.68,7.69-.51s5.43.79,7.13,1.19c.05.01.23.3.47.36,1.52.38,3.02.87,4.52,1.31.13-.13-.52-1.33-.66-1.59-.09-.15-1.7-2.14-.64-1.73.75.29,2.51,2.28,3.22,2.96.33.32.52.84.82,1.08.48.38,1.25.46,1.79.71s4.09,1.84,4.28,1.66c-.31-1.19-1.04-2.34-1.9-3.21.74-.34,1.74.98,2.26,1.54,1.53,1.63,1.69,2.55,3.76,3.86.3.19.79.13.87.18.08.05.22.4.48.57,1.55,1.03,3.08,2.18,4.74,2.99.03.22.04.43.22.6l3.7,3.43,2.25,2.85c0-3.22-.95-6.61-2.2-9.57-.11-.25-.4-.37-.42-.41-.08-.17-.03-.55-.18-.87-.96-1.99-2.27-4.27-3.85-5.78-.01-.08.01-.16,0-.24-.01-.06-.18-.16-.24-.24-1.72-2.26-4.04-3.99-6.42-5.46-4-2.49-6.3-3.18-10.93-3.8s-6.48-.63-11.17.48c-.73.17-1.54.16-2.15.34-3.64,1.07-6.82,3.14-10.2,4.77,3.35-3.76,8.45-7.32,13.06-9.39.86-.38,2.18-.86,3.09-1.19,1.13-.41,2.39-.68,3.56-.95.66-.71-3.14-1.4-3.33-1.66.9-.05,2.22-.09,3.09,0s1.93.66,2.73.67c.38,0,3.78-.76,3.92-.91.35-.36-.14-.42-.3-.54-.73-.57-1.9-1.05-2.79-1.36-.05-.45.5-.19.76-.17.33.03,1.12.11,1.37.17,1.52.38,2.74,1.49,4.4,1.44,1.38-.04,2.97-.54,4.39-.49-.45-.8-1.54-1.16-2.37-1.43.11-.49,1.56-.1,1.9,0,1.02.3,2.44,1.26,3.46,1.41,1.35.2,3.22.02,4.62.25,1.29.21,3.59.95,4.93,1.36.92.29,1.75.73,2.67,1.01.17-.16-1.01-1.55-1.19-1.77-1.6-1.89-2.86-2.75-4.75-4.16-2.98-2.23-4.56-3.43-8.32-4.51s-6.72-1.42-10.69-.95c-1.71.2-4.7.58-5.94,1.66-3.09.61-6.3,2.71-8.78,4.65-.34.27-.56.7-.96,1.05-4.51,3.93-6.61,7.41-9.87,12.36-.08.12-.21.93-.59.47-.18-.22,1.61-4.59,1.83-5.41,1.17-4.31,1.65-7.99,1.26-12.41s-1.34-7.88-3.56-11.88c-1.26-2.26-2.62-3.95-4.51-5.7-4.08-3.78-7.7-5.16-13.07-6.18ZM100.33,107.74c-8.01,3.41-13.64,7.58-20.91,12.12-1.32.82-2.69,1.59-4.04,2.38-.49.29-1.15.39-1.43.95-1.17.05-3.91,1.66-5.23,2.14s-3.24,1.12-4.51,1.43c-2.93.7-7.47,1.12-10.45.95-1.64-.09-5.58-1.03-7.37-1.66-2.48-.88-4.92-1.82-7.2-3.14-1.13-.65-2.42-1.84-3.37-2.34-.38-.2-.63-.3-1.08-.23,2.95,4.7,6.61,8.58,11.41,11.4,1.9,1.12,2.2,1.24,4.28,1.9,2.98.95,8.5,2.27,11.41.95,1.68.04,4.95-.32,6.18-1.43,2.72-.48,5.6-1.91,8.02-3.28.31-.17.46-.48.54-.52,9.04-5.3,17-13.81,26.14-18.3,4.85-2.39,12.67-4.39,18.06-4.28,6.03.13,11.66,2.16,16.98,4.76.22.11.66.45.84.11-3.37-3.72-8.01-6.21-12.89-7.33-1.7-.39-3.92-.77-5.64-.63h-5.82c-4.96.46-9.42,2.13-13.9,4.04Z"/>
    <path class="cls-9" d="M91.78,39.07c-.16-.18-.16-.36-.24-.48.14.09.24.3.24.48Z"/>
    <path class="cls-9" d="M92.01,39.31c-.11-.07-.16-.14-.24-.24h.24v.24Z"/>
    <path class="cls-4" d="M73.95,136.02c.11,1.04,0,1.59-1.19,1.43-.17-1.24.03-1.26,1.19-1.43Z"/>
    <path class="cls-15" d="M74.19,46.92c.26.26-.21.73-.47.47s.21-.73.47-.47Z"/>
    <path class="cls-9" d="M82.86,24.58c.15.08.15.16,0,.24v-.24Z"/>
    <path class="cls-9" d="M118.98,62.36c.13.15.48.31.24.47-.11-.14-.48-.3-.24-.47Z"/>
    <path class="cls-1" d="M146.12,116.82c2.89-.85,3.67,3.46,1.03,3.89-2.48.4-3.09-3.28-1.03-3.89Z"/>
  </g>
</svg>
