<?xml version="1.0" encoding="UTF-8"?>
<svg xmlns="http://www.w3.org/2000/svg" width="512" height="512" viewBox="0 0 512 512" role="img" aria-labelledby="title desc">
  <title id="title">Coastal Fix IT icon</title>
  <desc id="desc">A circular coastal technology icon with a palm tree and wave circuit lines.</desc>
  <defs>
    <linearGradient id="ringGrad" x1="0%" y1="0%" x2="100%" y2="100%">
      <stop offset="0%" stop-color="#1DE6D3"/>
      <stop offset="100%" stop-color="#1C63F2"/>
    </linearGradient>
    <linearGradient id="treeGrad" x1="0%" y1="0%" x2="100%" y2="100%">
      <stop offset="0%" stop-color="#13E1D1"/>
      <stop offset="100%" stop-color="#0A53D6"/>
    </linearGradient>
  </defs>
  <rect width="512" height="512" fill="none"/>
  <g transform="translate(256 220)">
    <circle cx="0" cy="0" r="180" fill="none" stroke="url(#ringGrad)" stroke-width="12"/>
    <g fill="url(#treeGrad)">
      <path d="M -9 -25 C -61 -84 -112 -95 -155 -84 C -115 -66 -84 -49 -46 -18 C -31 -5 -18 -5 -9 -25 Z"/>
      <path d="M -3 -33 C -24 -101 -16 -149 14 -174 C 18 -134 14 -96 5 -49 C 3 -38 0 -34 -3 -33 Z"/>
      <path d="M 10 -23 C 58 -80 111 -86 151 -67 C 110 -53 75 -36 34 -4 C 22 7 13 4 10 -23 Z"/>
      <path d="M 2 -10 C 36 13 60 49 67 95 C 39 66 16 37 -4 10 C -5 0 -3 -6 2 -10 Z"/>
      <path d="M -9 -8 C -51 8 -82 43 -103 89 C -88 41 -59 10 -21 -13 C -15 -16 -11 -14 -9 -8 Z"/>
    </g>
    <path fill="url(#treeGrad)" d="M -42 8 C -78 41 -106 87 -97 131 C -89 170 -52 185 -6 176 C -43 164 -57 136 -48 104 C -40 76 -21 49 4 18 C 10 10 5 4 -5 1 C -16 -2 -30 -1 -42 8 Z"/>
    <g fill="none" stroke="url(#ringGrad)" stroke-width="9" stroke-linecap="round" stroke-linejoin="round">
      <path d="M -108 123 C -68 157 -18 161 26 126 C 61 97 108 93 136 106"/>
      <path d="M -95 139 C -46 167 4 167 48 134 C 79 110 106 111 129 111 L 149 111"/>
      <path d="M -77 158 C -27 179 23 175 71 146 C 89 135 107 136 122 136 L 136 136"/>
      <path d="M -59 173 C -8 187 37 181 83 158 C 96 152 108 152 118 152"/>
    </g>
    <g fill="url(#ringGrad)">
      <circle cx="149" cy="111" r="9"/>
      <circle cx="136" cy="136" r="9"/>
      <circle cx="118" cy="152" r="9"/>
      <circle cx="83" cy="158" r="9"/>
    </g>
  </g>
</svg>
