<?xml version="1.0" encoding="UTF-8"?>
<svg id="Layer_2" data-name="Layer 2" xmlns="http://www.w3.org/2000/svg" viewBox="0 0 672.69 691.38">
  <defs>
    <style>
      .cls-1 {
        fill: #0293a5;
      }

      .cls-2 {
        fill: #05a8e8;
      }

      .cls-3 {
        fill: #03d6c0;
      }

      .cls-4 {
        fill: #02c5c0;
      }

      .cls-5 {
        fill: #02b7b8;
      }

      .cls-6 {
        fill: #0293a7;
      }

      .cls-7 {
        fill: #02e5c8;
      }

      .cls-8 {
        fill: #02668f;
      }

      .cls-9 {
        fill: #02e6c6;
      }

      .cls-10 {
        fill: #02b1b4;
      }

      .cls-11 {
        fill: #02d0bf;
      }

      .cls-12 {
        fill: #f7fbfc;
      }

      .cls-13 {
        fill: #03acbd;
      }

      .cls-14 {
        fill: #f7fbfd;
      }

      .cls-15 {
        fill: #03618d;
      }

      .cls-16 {
        fill: #0186a2;
      }

      .cls-17 {
        fill: #0274c1;
      }

      .cls-18 {
        fill: #0670bb;
      }

      .cls-19 {
        fill: #13589a;
      }

      .cls-20 {
        fill: #027999;
      }

      .cls-21 {
        fill: #089ece;
      }

      .cls-22 {
        fill: #027a9b;
      }

      .cls-23 {
        fill: #03d5c5;
      }

      .cls-24 {
        fill: #02a0c1;
      }

      .cls-25 {
        fill: #038ebb;
      }

      .cls-26 {
        fill: #0296ba;
      }

      .cls-27 {
        fill: #025688;
      }

      .cls-28 {
        fill: #026f94;
      }

      .cls-29 {
        fill: #03b6c5;
      }

      .cls-30 {
        fill: #019cac;
      }

      .cls-31 {
        fill: #0861a1;
      }

      .cls-32 {
        fill: #0485d5;
      }

      .cls-33 {
        fill: #05c1d2;
      }

      .cls-34 {
        fill: #03b7b8;
      }

      .cls-35 {
        fill: #025e8a;
      }

      .cls-36 {
        fill: #049ae0;
      }

      .cls-37 {
        fill: #0181d1;
      }

      .cls-38 {
        fill: #0c72c2;
      }

      .cls-39 {
        fill: #14508e;
      }

      .cls-40 {
        fill: #0379ad;
      }

      .cls-41 {
        fill: #02c3d4;
      }

      .cls-42 {
        fill: #03b7b6;
      }

      .cls-43 {
        fill: #0184cb;
      }

      .cls-44 {
        fill: #029cab;
      }

      .cls-45 {
        fill: #04a9e9;
      }

      .cls-46 {
        fill: #017d9c;
      }

      .cls-47 {
        fill: #0395a8;
      }

      .cls-48 {
        fill: #03c1c7;
      }

      .cls-49 {
        fill: #02e5d8;
      }

      .cls-50 {
        fill: #03d5c3;
      }

      .cls-51 {
        fill: #0490db;
      }

      .cls-52 {
        fill: #02d7c5;
      }

      .cls-53 {
        fill: #026891;
      }

      .cls-54 {
        fill: #095799;
      }

      .cls-55 {
        fill: #0387d7;
      }

      .cls-56 {
        fill: #0385ae;
      }

      .cls-57 {
        fill: #0d7bc2;
      }

      .cls-58 {
        fill: #02809f;
      }

      .cls-59 {
        fill: #02467c;
      }

      .cls-60 {
        fill: #02bcba;
      }

      .cls-61 {
        fill: #03d5d0;
      }

      .cls-62 {
        fill: #03a6b2;
      }

      .cls-63 {
        fill: #f5fafc;
      }

      .cls-64 {
        fill: #1262aa;
      }

      .cls-65 {
        fill: #0565a2;
      }

      .cls-66 {
        fill: #1166ae;
      }

      .cls-67 {
        fill: #04a2d1;
      }
    </style>
  </defs>
  <g id="Layer_1-2" data-name="Layer 1">
    <path class="cls-37" d="M426.31,524.94l3.43,1.01c1.2,7.11,4.46,8.43,9.77,3.97,3.02-2.08,13.59,6.6,11.06,8.23-9.51-.24-18.94.02-28.27.79l-2.6,2.52c-13.71,2.87-25.75,10.39-36.5,19.13-44.06,40.53-97.16,77.65-160.38,72.42,57.65,14.68,111.91-11.37,153.4-49.68,9-6.4,27.66-18.2,38.67-17.92,1.29.03,2.42.77,3.41,1.53,15.66-.69,31.34-.81,47.04-.36l-.44,2.43c-4.33-.09-7.89.7-10.66,2.38,1.44.93,10.26,6.69,6.54,8.05-12.9-.34-25.72-.17-38.48.5l-2.54,2.41c-20.98,4.12-40.95,21.19-56.32,35.67,4.08-1.74,7.04-1.44,8.86.92,3.27-1.37,5.61.23,7.02,4.78,3.56,2.09,5.53,4.57,5.91,7.45l-10.93.77c-5.82,3.3-12.35,5.66-19.62,7.08-23.56,9.86-47.84,16.27-72.83,19.25,35.57,10.12,75.9,11.12,113.47,4.06,30.8-5.78,53.46-16.05,81.42-29.08,2.04-.95,4.34-1.16,6.56-1.32,2.23-1.56,6.82,3.04,8.05,4.92,1.59,2.44,5.29,11.15,2.95,13.08-104.28,58.84-224.23,53.98-326-8-.55-.56-1.32-1.45-1.03-1.93,3.99-6.56,9.49-11.65,15.66-15.78l5.62-11.1c1.35-.64,2.93-.71,4.74-.19l4.93-1.21c52.26,8.7,100.5-15.51,141.56-45.56,17.78-15.19,36.94-27.7,57.5-37.54,8.47-3.1,20.88-7.24,29.01-3.69Z"/>
    <path class="cls-39" d="M584.31,109.94c-1.06,1.39-.39,2.06,2,2,91.86,105.62,111.99,252.56,53,380-1.76,1.72-2.58.58-2.73-1.75-8.94-1.05-9.53-9.07-5.27-15.56l-2.04-6.59c-.94,3.52-4.42,12.18-5.97,5.9-.02-2.4.02-4.86.8-7.16,9.61-28.33,17.51-52.01,21.35-82.08,7.37-57.71-.57-116.81-23.36-170.37-11.85-27.84-25.86-48.31-43.02-72.76-1.39-1.98-2.12-4.33-2.77-6.64,3.53-.99,4.26-14.98-.4-10.09-1.79,2.37-3.66,3.4-5.6,3.09-2.83,1.38-4.26-1.38-3-4,1.94-2.3,2.69-5.44,2.24-9.43l3.27-6.81c-1.5-5.63-.67-8.22,2.49-7.76,3.05,3.23,6.05,6.66,9,10Z"/>
    <path class="cls-9" d="M38.31,184.94c1.91-2.59,4.22-1.44,6.93,3.45,5.93,1.07,7.28,5.5,4.05,13.27.6,3.44.61,6.86.02,10.28,0,2.44-.05,4.93-.85,7.25-15.4,45.03-24.56,81.18-23.66,129.42.88,47.01,10.93,81.75,27.4,125.1.87,2.3,1.02,4.79,1.1,7.22l.58,2.15-9.09,4.72c-.42,7.16-1.73,16.33-9.48,7.13-47.95-100.56-47.18-210.49,3-310Z"/>
    <path class="cls-49" d="M278.31,4.94c2.59.69,2.09,2.24,1.18,4.44l-4.87,6.61c-2.03,8.72-6.57,12.17-13.98,14.08l-1.33,1.88c-1.63,1.38-3.34,2.8-5.39,3.49-43.37,14.6-75.56,28.36-111.69,57.55-36.89,29.8-57.59,59.25-81.39,99.45-1.1,1.85-2.84,3.22-4.53,4.52-2.27,1.14-3.67,3.05-3,6,1.72,3.27-.41,8.1-4,9-.66-3.44-2.25-6.82-2.01-10.44.13-1.89,2.27-9.1,1.98-9.49-.17-.23-4.12-1.2-5.24-2.04-1.81-1.37-2.34-5.11-5.74-5.03C86.71,88.96,171.4,23.63,278.31,4.94Z"/>
    <path class="cls-67" d="M197.31,583.94l.22,2.18c-1.7.42-2.93,2.03-3.68,4.84-7.45,2.08-12.88,6.81-18.55,11.97-.93,1.55-2,2.01-3.63,1.49,6.73,2.55,13.66,4.75,20.68,6.28l.96,2.22c-3.56-.68-2.37.54-3.35,2.12-4.23,6.82-3.15,11.4-12.19,14.84l-9.46,12.04c-22.45-13.67-38.85-26.18-58-44,1.33-1.51,3.49-2.59,6.49-3.26,2.38-6.31,5.66-9.91,11.49-13.23,2.15-4.99,4.82-7.5,8.02-7.52l2.48-1.15c17.03,6.25,35.28,9.32,53.75,9.23l4.77,1.92Z"/>
    <path class="cls-64" d="M623.31,473.94l1.25.77c1.51-2.38,2.22-7.16,3.71-9.17,2.22-3.01,4.97,7.56,5.03,9.02.15,3.6-3.9,3.97-2.35,9.19s4.52,3.4,7.84,5.16c.93.49-1.18,2.64.51,3.04-.98,2.11-2.01,3.97-3,6l-2.13.8c-8.63-6.8-9.19,1.99-1.8,5.98-1.3,2.77-1.98,4.51-2.07,5.21-.69,2.88-4.18,8.77-5.82,11.69-15.42,27.53-36.98,53.16-59.18,75.31-6.03-.25-4.87-10.35,1.55-11.1-8.72-1.52-12.23-4.82-10.55-9.9-1.03-2.57-.55-3.06,2-2,2.33-1.32,4.85-2.17,7.57-2.55-1.3-2.22-1.49-4.04-.57-5.45l.51-2.64c20.59-26.72,40.08-54.78,53.78-85.87l3.71-3.5Z"/>
    <path class="cls-41" d="M372.31,1.94c5.43,1.55,2.85,11.75.11,15.34-3.46,1.87-5.5,4.09-6.11,6.66-1.94.78-3.96,1.55-6.08,1.53-33.35-.39-64.9-.57-97.73,7.06l-3.19-.59c-2.92-5.37,3.65-4.35,5.96-5.54,6.5-3.36,5.22-6.88,7.61-11.39,1.6-3.04,5.53-4.53,5.43-10.07,31.52-5.51,62.22-6.26,94-3Z"/>
    <path class="cls-38" d="M556.31,575.94c1.41,1.07,1.61,4.37,2.65,5.09,1.79,1.24,10.29,2.43,11.35,4.43,1.14,2.16-5.27,2.03-6.55,4.49-.85,1.64.28,5.5,1.56,6.99-21.6,21.56-44.49,38.04-71,53l-4.56-11.95-6.44-6.05,1.55-2.41c24.45-15.42,47.57-32.97,68.72-52.7l2.73-.89Z"/>
    <path class="cls-33" d="M85.31,532.94l3.33.91c12.85,15.01,28.11,28.38,45.93,37.12l1.74,2.97c-3.11,1.97-4.21,6.45-6.59,8.91-2.08,2.14-5.66,3.15-7.43,5.57-3.95,5.39-1.43,10.02-11.97,9.53-15.21-14.16-25.35-25.38-38-42,1.81-5.3,4.23-10.37,7.25-15.21.33-7.62,2.25-10.22,5.75-7.79Z"/>
    <path class="cls-61" d="M85.31,532.94c-4.26.14-2.73,5.46-3.92,8.58-.63,1.66-2.18,2.7-2.82,4.18-1.43,3.28-2.27,9.67-6.26,10.24-15.77-20.72-25.83-37.57-37-61,10.6,5.86,5.05-3.85,7.92-8.33.95-1.48,8.37-3.71,10.08-5.67l3.87,3.43c7.56,15.31,16.43,29.99,26.77,43.58l1.36,4.98Z"/>
    <path class="cls-21" d="M445.31,17.94c-.53.7-.24,1.7.85,3.01-.55,3.04-14.28,16.13-18.85,14.99l-3.33.41c-17.05-4.17-34.29-7.44-51.72-9.8l-5.95-2.61c-5.57-2.74,2.98-5.92,4.58-7.92,2.53-3.16,3.35-10.37,1.42-14.08,26.82,2.75,47.59,7.62,73,16Z"/>
    <path class="cls-57" d="M445.31,17.94c20.91,6.9,35.79,13.29,55,24,1.79,2.46.22,5.24-4.71,8.33l-3.95,8.34c-.99,2.61-2.44,3.39-4.34,2.33-.96.06-1.92.08-2.86-.03s-1.78-.25-2.56-.6c-17.27-7.73-32.66-14.16-50.31-20.96-.8-.31-1.52-.83-2.23-1.4s-1.4-1.29-2.04-2.01l10.49-8.01c.77-2.84,5.23-4.75,6.08-6,1.41-2.08-2.53-4.57,1.43-3.99Z"/>
    <path class="cls-19" d="M575.31,99.94c-2.46,2.06-.14,5.8-.54,8.12-.36,2.09-2.87,4.56-3.4,7.44-.69,3.7,1.9,8.63-4.06,8.44l-3.23-.55c-8.3-8.8-17.06-17.21-26.11-25.23l-.65-3.22c-.86-3.7-2.4-5.2-5.52-7.79-2.6-4.41.53-16.06,2.25-21.27l2.27-.94c14.64,10.97,26.47,21.73,39,35Z"/>
    <path class="cls-66" d="M536.31,64.94l-4.04,17.48c-.53,6.02,9.1,5.77,5.04,12.52l-3.99-.76c-13.67-11.23-28.51-21.02-43.88-29.77l-2.13-3.48c3.52-2.77,4.18-8.62,6.98-12.25,1.53-1.99,5.48-3.09,6.02-6.75,13.06,7.28,24,14.01,36,23Z"/>
    <path class="cls-39" d="M636.31,497.94c-1.87,3.84-2.92,8.68-6,12,.01-.05-1.07.11-.98-.49.12-.74,1.89-2.18,1.82-3.02-.12-1.43-9.03-4.53-4.91-10.81,2.41-3.68,7.78.25,10.07,2.32Z"/>
    <path class="cls-19" d="M584.31,109.94c.53.59,1.27,1.16,2,2-3.65,4.25-6.34-2.11-2-2Z"/>
    <path class="cls-2" d="M422.31,579.94c.47-.06,1.56-.93,3.38-1.07,11.07-.89,23.41.82,34.62.06-2.21-4.37-12.9-5.81-5.29-10.78l10.29-1.2h-46.99c25.03-3.01,51.29.71,76.54-.97,1.55-.1,6.68-.65,7.73-1.05,1.24-.47,4.26-10.93,13.92-13.3,25.87-6.37,32.16,34,7.23,37.22-9.6,1.24-13.03-3.99-19.94-8.89l-81.48-.02Z"/>
    <path class="cls-51" d="M372.31,618.94c.23-.03,1.11-.94,2.42-1.04,7.49-.59,21.46,1.49,27.85-.96.64-.25,5.47-8.29,8.78-10.45,10.11-6.6,26.17-.15,27.86,12.04,2.79,20.08-17.5,30.96-31.97,16.94-1.02-.99-1.83-3.35-2.65-3.55-7.4-1.81-22.03,1.38-30.29.02,3.16-.56,6.52-1.3,9.99-1.49-1.9-2.16-4.67-3.26-6.53-5.47-2.36-2.82-1.47-6.91-5.47-6.04Z"/>
    <path class="cls-36" d="M422.31,538.94c.22-.04,1-.89,2.4-1.05,7.93-.9,17.47.77,25.59.04l-7.54-6c-3.97-1.56-7.54,4.16-10.45,2.57-3.41-1.86-2.94-7.6-6-9.56,5.71-.2,21.35,1.16,25.34-.16,1.75-.58,2.33-3.8,3.65-5.35,21.18-24.7,46.97,9.93,27.5,25.5-10.51,8.41-23.18,3.7-29.95-6.62l-30.55.62Z"/>
    <path class="cls-19" d="M570.31,127.94c1.26-2.33,7.53-8.47,10-6.01.5.5,1.12,13.21-.01,14l-3.99-1c-1.93-2.35-3.99-4.72-6-7Z"/>
    <path class="cls-9" d="M56.31,196.94c-.96,1.95-2.11,4.08-3,6-4.43-.85,1.39-8.95,3-6Z"/>
    <path class="cls-43" d="M225.31,579.94c3.81.86,8.24.07,13.28-2.37,5.61,6.32,8.72,16.71-.11,22.2-.5.31-1.06-2.2.83,1.17-23.34,5.33-40.39,5.77-64,2-1.61-1.91.21-2.88,1.52-3.98s8.97-7.23,9.52-7.49c2.29-1.06,5.38-.05,6.95-3.05,1.23-3.12-6.76-1.42-6.99-3.47,2.79-.25,5.84.33,8.57.03,1.29-.14,2.21-1.02,2.42-1.04,9.76-1.13,18.29-1.81,28-4Z"/>
    <path class="cls-38" d="M558.31,573.94c2.05-2.18,4.92-5.61,7-8,5.95,7.83.63,8.49-7,8Z"/>
    <path class="cls-24" d="M272.31,289.94c6.14-1.45,10.61-1.21,10.34,6.34,3.83,5.58,4.24,10.64,2.96,17.28.83,2.38.73,4.17-.3,5.38-22.24,19.79-42.92,47.76-55,75-3.54-.71-8.09,6.64-9.42,11.19l-3.03,4.11c-18.89,17.91-34.87,38.37-49.23,60.29-1.42,4.08-4.54,10.35-9.32,8.4-4.65-1.82-6.45-2.5-11-5l-1.03-1.94c11.4-14.97,22.87-29.89,34.42-44.75l2.61-.3c1.16.17,6.7.72,6.99-.99-4.43-.69-9.43-3.78-13.3-6.21-2.62-1.65-3.88-3.44-5.7-4.8-.9-1.88-.16-2.73,1.8-2.95,6.45.57,8.44-1.52,11.12-7.16,9.48-10.21,18.64-20.62,22.38-34.37l3.7.48c1.2.4,4.87,1.27,6,.5-2.93-2.1-17.04-14.75-17.03-17l.5-1.48,37.56-37.53c4.33-2.02,12.95,7.56,17.97,8.51l-8.92-15.4c7.85-6.56,16.36-12.07,24.93-17.6Z"/>
    <path class="cls-17" d="M399.31,483.94c1.58,1.49,2.8,3.71,3.67,6.66l6.41,7.33-1.08,2.01c-63.11,24.7-94.06,83.9-169,101-7.8.37,2.7-5.47,3.02-8.53.1-1.01-2.87-11.86-3.49-12.5-3.22-3.3-5.27,1.21-7.23,1.82-1.14.36-7.26,1.48-6.3-1.8,68.37-15.4,110.39-74.64,174-96Z"/>
    <path class="cls-59" d="M364.31,177.94c.91,4.17.91,8.51,0,13-.94,20.3-7.28,37.76-12.99,56.99l19.58-29.91c6.13-7.98,12.18-15.15,19.41-22.09,6.65-1.9,3.02,6.44.13,9.48,2.72,7.07,5.08,14.12,6.17,21.64l-1.3,1.88c-9.53,5.64-18.51,13.49-27.47,20.03l-12.52,12.97c15.87-10.51,32.58-18.96,50.99-24,7.61,3.75,1.76,13.94-5.49,16.02-7.54.69-28.16,13.36-6.76,8.08,3.58-.27,7.51,1.59,6.02,5.47-6.68-.42-13.27-.28-19.77.43-6.34.67-18.46,1.71-24,4,.05.8.22,1.27.5,1.42,1.47-.08,9.56-.11,9.98.21,3.55,2.7-6,13.4-9.48,13.37-1.36-.73-6.47-2.64-8-3-1.06-1.03-1.35-2.79-.87-5.28-6.16-1.88-10.63-6.14-13.41-12.76l-8.44-6.71c-1.46-3.88,3.26-18.32,8.72-15.25.51,2.62.43,6.22,1.01,9,2.89-.89,1.67-4.08,1.99-6,.81-6.39.95-12.88.42-19.47,1.2-1.62,3.38-1.45,6.54.51,2.4-12.72,3.04-25.83,1.95-39.32,1.62-1.43,2.26-3.99,1.9-7.68,1.3-1.89,13.85-6.39,15.21-3.04Z"/>
    <path class="cls-27" d="M335.31,243.94c-4.08,1.43-7.76,10.8-7.07,14.32.11.53,6.76,4.43,8.59,6.66,2.16,2.65,3.09,6.6,5.41,8.59,4.38,3.74,11.29,1.19,7.07,10.43-8.13-1.88-15.92,2.18-23,6-2.86-.37-6.94-6.34-8.4-9.16-1.64-3.19-4.16-8.44-5.02-11.77l1.42-2.08c0-.11,1.57-1.36,1.01-1.98s-12.07-4.06-14-4.52c-6.88-1.65-16-3.3-23-3.5-1.03-1.2-1.5-2.43-.35-3.47l7.94-6c1.37-6.4,4.5-10.58,9.41-12.53,11.34,6.47,20.82,13.03,29.5,23,.76.16.64-.96.48-1.47-3.95-12.88-29.27-35.65-40.98-42.52-.31-1.92.39-4.05,2.11-6.38,1.44-11.36,6.31-18.52,14.71-26.14l2.18.52c16.6,17.77,27.31,37.86,32,62Z"/>
    <path class="cls-56" d="M218.31,435.94c-1.27,8.67-1.43,18.19-1,27-1.02,4.99-1.69,9.13.77,13.83l-.7,1.67c-14.93,7.7-26.45,19.68-34.57,35.96-2.48,4.92-6.98,7.1-13.49,6.54-6.96-.35-12.99-1.02-19.82-2.68-3.13-.76-10.59-1.58-11.19-4.81s.84-30.46,2.02-31.51c12.85,3.62,25.74,3.16,38.99,2.99l-15.99-4.99c-.34-.38-.63-.78-.8-1.23-1.17-3.15,13.3-7.34,16.05-7.61,12.82-11.59,25.12-24.12,36.88-37.57,2.4-1.99,3.5-.29,2.87,2.42Z"/>
    <path class="cls-54" d="M366.31,453.94c5.88,2.53,11.97,6.87,11,14-37.54,18.38-70.34,51.33-106,74-2.79-1.26-3.3-8.79-3.21-11.99.17-6.41.98-8.44,6.76-11.93,2.6-2.95,5.53-7.49,2.65-11.08l.8-2c30.63-18.69,54.23-36.73,88-51Z"/>
    <path class="cls-1" d="M357.31,138.94c.49,2.71-1.1,3.49-3.55,4-13.38.33-10.5,10.28-6.76,19.44l-1.69,1.56,2.16.64c1.72,8.56,3.16,16.09,1.1,24.55-4.03,1.51-6.3,3.93-9.06,7.59-2.32,1.85-4.53,3.54-6.2.22-3.12-12.14-8.23-24.67-13.45-36.05-.76-1.65-3.56-3.72-2.06-4.94l13.01,9.99c.75.16.67-1.02.48-1.48-.93-2.27-7.81-10.1-9.98-12.03-7.1-6.31-13.44-8.32-17-19.01-.83-2.51.91-.9,1.71-.7,6.14,1.52,9.8,4.66,15.28,7.21-2.18-2.93-5.12-5.81-8-7.99l.04-2.47c4.44-2.24,7.01-5.31,7.73-9.19-2.12-6.92-.41-10.77,5.69-14.3,1.02-5,2.86-7.35,5.53-7.04,12.34,12.14,19.38,23.52,25,40Z"/>
    <path class="cls-7" d="M178.31,286.94c-2.41,1.53-4.22,1.97-6,3-2.92,1.97-5.65-2.24-6-5,.82-1.36,2.3-2.23,1.99-4-.74-.87-12.77,14.35-13.8,15.69-2,2.58-3.02,6.15-4.75,8.25-7.01,8.46-24.07,17.57-30.95,28.05l-10.48,13.01c1.79-35.72,19.19-68,44.99-91.99,5.63-.05,9.19,5.01,10.68,15.18,6.69,3.77,12.99,7.91,15.74,15.63l-1.42,2.19Z"/>
    <path class="cls-5" d="M223.31,142.94l-2.74,1.6c4.08,10.64-1.43,24.81-10.43,31.26,2.42-.27,3.8.44,4.16,2.14-4.01,1.5-8.52,1.62-12.78,2.72-2.7.7-12.98,5.28-13.72,5.28h-29.5c3.73-4.28,9.83-6.5,15.01-8.49,3.21-2.51-4.61-.61-5.01-.51-4.99,1.53-5.62-9.71-3.83-13,6.32-4.02,4.73-9.32-2.08-11.25-2.12-1.36-3.27-2.8-1.1-4.75,15.63-4.49,30.18-6.72,46.54-7.04l15.46,2.04Z"/>
    <path class="cls-52" d="M161.31,147.94c1.14,5.29,7.44,2.56,8.79,8.72,1.66,7.56-4.26,6.03-4.48,9.87-.12,2.08.29,9.45,2.68,10.41-8.39,2.22-16.41,7.47-23.83,9.67-5.55,1.65-11.88,1.39-17.4,2.6-15.88,3.47-31.65,7.73-46.77,13.72,20.09-26.61,48.94-45.77,81-54.99Z"/>
    <path class="cls-22" d="M295.31,173.94c.25,2.71.55,5.5,4,4,1.44,1.4,2.6,2.51,4,4-2.9,3.53-9.4,9.45-11.42,13.08-2.9,5.22-1.43,14.16-7.58,18.92-6.95-4.07-18.1-8.81-25.75-11.75-8.56-3.29-17.43-5.76-26.24-8.27l10.98-3.5c3.63-1.14,7.28-1.17,11.01-1.49-3.41-1.65-3.89-3.74-1.44-6.28,1.1-5.33,1.67-10.84,1.72-16.51l3.34-6.16-5.99-7.95,1.37-2.09c16.29,6.06,29,12.55,42,24Z"/>
    <path class="cls-4" d="M200.31,225.94c3.52.35,5.58,4.4,4.44,7.83-4.2,10.57-4.53,14.06,4.55,21.78,2.72,4.02,7,13.09,2.01,16.39-2.69,1.25-4.13,1.93-7,3-3.53-.48-5.53-1.81-6-4,.59-.91,8.75-10.81,4.51-8.99-1.07.46-11.35,11.13-13.03,12.98-5.4,5.94-3.79,7.13-11.49,12.01-1.32-5.19-4.98-9.18-9.06-12.44-1.83-1.46-4.93-1.89-6.41-3.59-2.67-3.07-2.66-10.64-4.6-13.39-1.31-1.86-4.08-1.34-4.93-3.57,14.55-13.53,27.86-21.76,47-28Z"/>
    <path class="cls-55" d="M512.31,493.94c1.57.36,1.98,2.14,1.21,5.36,4.57-3.37,18.17,5.08,17.31,8.1-.6,2.1-12.19,1.15-14.52.54-15.36-1.03-24.21-8.55-38-12.5-23.26-6.65-47.73-4.22-70,4.5-3.44-5.73-9.81-7.84-9-16,25.42-8.54,50.39-11.18,76.78-4.28,12.38,3.24,25.08,12.06,36.22,14.28Z"/>
    <path class="cls-6" d="M223.31,142.94c10.39.04,20.42,3.44,30,7,.18,2.36,6.56,8.51,6.67,9.47.24,2.12-2.98,5.09-3.46,7.23-1.41,6.3,1.55,15.14-4.2,19.8l3.99,2c.04.91-1.31.44-2,.5-4.21-2.18-9.88-2.27-14.54-2.03-6.37.33-14.51,3.72-19.94,3.84-5.74.12-14.28-3.26-20.52-2.82,2.12-2.24,6.44-3.95,9.32-5.17,3.77-1.6,7.63-3.06,11.67-3.84-.24-1.9-4.48-.89-5.99-.99-1.38-.09-7.02.47-6.98-1.5.04-1.63,7.47-7.25,7.75-7.73s3.3-8.4,3.77-9.74c1.88-5.37,1.95-11.37-1.54-16.03,1.99-.02,4-.02,6-.01Z"/>
    <path class="cls-62" d="M243.31,219.94c3.15.49,3.37,2.3,2.57,5.11-3.59,6.43-3.28,10.88.18,17.15l.28,7.98c2.82,3.98,3.48,7.24,1.97,9.76-1.42.3-4.02,1.48-6,2-6.29.33-9.29-1-9-4,.98-1.18,1.71-2.57,3-3.5.16-.74-1.02-.67-1.48-.48-1.9.78-9.51,6.75-11.53,8.48-5.97,5.09-4.49,6.02-11.99,9.51,1.38-4.94-.73-9.96-3.12-14.38-2.34-4.3-7.62-6.33-8.33-10.5-.91-5.4,3.22-12.16,3.27-15.82.03-2.01-3.02-2.96-2.82-5.3,15.44-5.03,26.71-6.44,43-6Z"/>
    <path class="cls-47" d="M464.31,160.94c4.02-.99,5.37,1.94,4.03,8.79-1.79,4.77-2.73,9.46-2.83,14.07l13.79,10.84c2.16,3.24.28,5.36-2.99,3.3-6.47-2.14-13.08-4.87-20-4.99l9.93,5.55,3.06,3.42c-4.72.49-12.12,3.84-16.5,3.84-6.93,0-17.57-6.01-25.5-1.83-2.76,4.98-5.74-3.55,1.4-4.08,6.41.96,5.88.03-1.6-2.81-3.69-6.68-6.28-9.87-13.16-13.58-1.76-2.38-2.2-3.52.36-5.53,17.5-10.48,29.21-14.92,50-17Z"/>
    <path class="cls-10" d="M300.31,77.94c13.4,5.59,21.66,10.83,32,21-2.42,1.95-2.28,5.96-3.97,8.26-1.25,1.71-5.01,2.74-5.83,5.45-1.15,3.79,1.47,6.84.3,10.22-1.31,3.79-6.42,6.85-9.5,9.07-5.28-4.01-12.39-5.9-16.53-8.97-2.47-1.83-5.57-7.45-7.96-10.04-3.34-3.64-7.16-6.86-10.51-10.5-.23-2.69.52-.88,1.76-.76,4.93.49,8.58,1.97,13.24,3.26-1.63-2.48-5.37-3.78-8-4.99l-1.16-2.03c1.63-6.36,7.96-22.58,16.16-19.97Z"/>
    <path class="cls-58" d="M295.31,234.94c-.68,2.86-4.63,5.26-5.46,7.04-.78,1.68-.37,3.51-1.48,5.52-2.17,3.89-8.86,4.98-10.05,9.45-8.43-.24-21.68,1.23-30,3-.32-3.17-3.55-7.29-3.96-9.54-.45-2.43.34-5.17-.24-7.76-1.02-4.55-3.93-4.21-2.56-11.97.65-3.69,4.38-6.92,1.76-10.73,21,.57,34.06,4.76,52,15Z"/>
    <path class="cls-31" d="M217.31,462.94c.94,19.2,4.81,33.91,22.58,42.91,1.05.53,1.88-.52,1.41,2.08-16.18,7.03-32.26,12.14-50,13.02-6.95,1.01-14.05.99-21,0-.33-.01-.67.02-1,0,1.42-2.15,5.1-.25,6.8-1.21.36-.2,4.5-5.63,5.04-6.45,6.89-10.53,11.48-18.82,21.12-27.88,4.22-3.96,9.78-6.9,15.04-8.97-4.71-5.23-2.2-7.66,0-13.49Z"/>
    <path class="cls-44" d="M505.31,251.94c1.02,3.07-1.52,5.7-7.6,7.87-2.96,8.07-5.48,10.92-14.4,11.78-4.57,1.81-6.87,7.57-7.01,12.21l-1.98,1.14c-1.99-.88-5.64-.96-7.94-2.56-3.41-2.38-9.22-10.84-13.58-14.42-1.26-1.04-5.86-4.49-6.99-5.01-2.82-1.29-.42,1.87-.48,1.99,2.61,3-5.39,6.29-7.18,4.68-3.09-2.78.82-10.39,5.12-10.84,2.65-3.91,7.22-6.09,13.72-6.54,2.57-7.52,6.36-12.96,11.35-16.3,15.22,3.41,24.02,7.83,37,16Z"/>
    <path class="cls-25" d="M159.31,477.94c6.2-1.91,5.63-6.46,8.14-10.36,7.34-11.41,16.5-22.41,24.42-33.58,7.77-10.96,19.54-18.89,26.86-29.14,1.18-1.66,1.65-4.61,3.15-6.85.44-.66,8.19-10.01,8.44-4.06-5.84,13.16-9.91,27.73-12,42,.85-4.18-2.91.53-3.37,1.1-6.6,8.17-13.63,14.44-21.16,21.88-3.11,3.07-8.91,10.57-11.49,12.51-4.97,3.72-15.4,2.34-18.98,8.52-1.85.37-3.15-1.67-4-2Z"/>
    <path class="cls-60" d="M531.31,273.94c2.21,3.62.64,5.81-2.43,8.36l-5.57,4.05c-2.98,6.26-6.82,11.3-12,15.6-2.13-1.39-6.61-2.51-8.92-4.57-6.54-5.83-11.57-17.88-20.58-22.42-1.64,1.84,2.31,3.84,3.54,5.5.68.92.67,2.05.96,2.5-.59,2.46-3.31,5.58-6,5-2.06-.79-4.03-2.13-6-3-.3-5.85,2.66-12.98,8.28-15.22,2.75-1.09,7.13-.83,9.27-2.73,1.98-1.75,2.2-6.26,4.42-8.58,2.62-2.73,7.43-2.3,9.02-6.48,10.89,6.86,17.43,11.91,26,22Z"/>
    <path class="cls-28" d="M414.31,177.94c-.69,6.29,5.96,5.87,9.55,9.95,2.05,2.33,2.14,5.39,3.9,7.1,2.44,2.39,8.48,2.35,10.55,6.45-3.97,1.84-10.39-1.69-12.99,2.49.65.08,1.36-.08,2,0,5.5.8,9.78,2.44,15,4.01.3.38-.6,1.21-1.01,1.47-5.37,3.46-19.43,5.17-25.66,9.34-6.53,3.73-13.88,6.36-20.33,10.17-2.04-3.59-1.49-7.57-2.43-11.07-.86-3.18-4.34-9.87-4.38-12.64-.04-2.07,6.8-6.94,1.82-9.3,8.41-8.06,14.13-12.09,24-18Z"/>
    <path class="cls-26" d="M202.31,535.94l.78,1.44c8.8-2.39,9.5.32,5.22,7.46,2.2,9.76.2,16.92-6.01,21.47-2.93-.02-4.26.53-3.98,1.63-2.96,1.66-8.19,1.22-11.55,1.05-11.87-.61-23.34-2.85-34.45-7.05-.3-.83-.3-1.72.34-2.37,4.85-4.93,9.09-9.4,8.67-17.06-5.16-5.57-2.78-6.96,3.99-5.56,12.51-.5,24.43.63,37-1Z"/>
    <path class="cls-34" d="M506.31,164.94c3.31,2.81,5.76,10.45,2.24,13.96-4.65,1.72-6.39,5.57-5.22,11.55l-2.01,1.49c-1.79-.58-5.81-1.44-7.76-1.75-1.06-.17-3.48-1.05-3.24.74,4.09,1.5,9.57,3.22,11.99,7-7.05-.99-17.68,3.36-24.1,1.56-.96-.27-1.59-1.45-1.9-1.55,2.73.36,2.62-.8,1.03-2.53-2.72-2.95-12.99-8.42-13.82-11.18-1.34-4.47,2.15-9.7,2.84-14.75.25-1.83.13-4.66.22-6.8.13-3.09,1.75-1.75-2.26-1.75,15.53-1.55,26.82-.52,42,4Z"/>
    <path class="cls-50" d="M531.31,273.94c16.61,19.56,27.59,45.21,28.99,71-13.99-17.83-30.12-30.73-48.99-43-.27-4.93,3.65-5.52,5.45-8.05s3.61-7.29,5.1-8.9c2.88-3.12,8.9-4.15,9.46-11.04Z"/>
    <path class="cls-20" d="M468.31,235.94c-.11,2.99-3.18,3.91-4.41,6.09-1.82,3.2-2.96,10.17-6.02,11.98-3.69,2.19-14.61.45-12.57,7.92-5.26-2.7-4.83,2.03-7,6,1.43,1.05,6.4-1.78,7-2.99,2.13,1.29,10.07,12.68,8.99,14l-43.99-11c1.31.09.37-.45-2.85-1.63-.19-12.59,11.54-16.74,21.86-19.37,6.15-.58,7.1-13.53.19-11.03l-1.21-1.97c1.04-1.66,3.8-1,5.49-1.02,12.71-.16,22.09.24,34.51,3.02Z"/>
    <path class="cls-48" d="M165.31,536.94c-1.66.07-3.34-.05-5,0-.28,2.59,2.69,2.98,3.02,5.54.78,6.03-5.02,17.21-11.03,19.45-20.22-7.63-37.6-22.85-50.98-39.52-1.58-1.97-12.96-17.34-12.01-18.48,14.87,12.62,32.33,21.76,50.99,27.5l25,5.5Z"/>
    <path class="cls-16" d="M314.31,266.94c.01.72,4.71,11.68,5.45,13.05,1.84,3.41,5.2,5.87,6.55,9.95-11.89,6.41-30.87,19.99-41,29-3.47-4.52-.45-9.89-1.03-14.42-.34-2.62-2.55-5.1-3.5-7.57-.6-1.56-.12-4.05-.62-4.85-.91-1.46-6.58-.36-7.84-2.16,13.39-8.64,27.18-16.99,42-23Z"/>
    <path class="cls-18" d="M449.31,436.94c-.16,1.3-.91,2.27-2.28,2.92,5.97,1.11,18.61,9.97,7.28,10.08-24.26-.92-55.27,7.36-77,18-2.46-1.57-3.1-6.57-4.24-7.76-1.45-1.53-5.91-1.81-6.76-6.24,13.5-5.7,25.53-10.64,39.81-13.69s29.44-5.17,43.19-3.31Z"/>
    <path class="cls-45" d="M516.31,507.94c3.25.22,7.24.16,10.52,0,1.13-.05,2.74.65,2.47-.99-2.54-.05-3.01-2.78-4.63-3.87-4.86-3.25-9-2.17-14.35-1.15l1.99-7.99c10.27,2.05,20.94.5,31.38,1.06,3.86-9.77,12.47-16.12,23.18-13.11,23.29,6.54,15.23,43.17-10.58,36.58-6.21-1.59-10.02-8.81-11.63-9.37-6.52-2.23-21.17,2.13-28.34-1.16Z"/>
    <path class="cls-23" d="M506.31,164.94c19.92,5.93,39.32,18.93,53.03,34.47.86.98,6.73,7.81,5.97,8.52-10.48-3.07-20.9-7.06-31.77-8.72-6.12-.93-14.17-.41-19.5-1.5-3.42-.7-9.17-4.62-12.72-5.78.13-3.44-.6-8.27,1.19-11.31,1.62-2.75,5.36-1.96,5.87-5.22.41-2.66-2.51-7.02-2.05-10.47Z"/>
    <path class="cls-65" d="M271.31,541.94c-13.24,8.42-24.06,13.83-39,19-.98.34-1.96.2-2.25-.71-1.25-4.01,7.49-8.55,11.28-7.83l-4.35-17.72c-3.72-3.78-3.95-6.36-.68-7.74,13.71-5.21,29.41-14.32,42-22,4.59,4.01,1.82,9.97-1.54,13.96-2.04,2.42-5.79,3.15-6.43,6.56-.98,5.16,1.01,11.24.97,16.48Z"/>
    <path class="cls-29" d="M211.31,369.94c-2.51-.51-2.14,1.14-2.69,2.76-4.88,14.35-11.59,20.87-21.31,31.74-2.24,2.51-2.78,6.79-6.94,8.06-2.77.84-5.98-.45-8.06,1.44-2.81-2.12-8.83-3.1-7.58-8,1.18-4.64,10.09-18.09,13.17-22.91,2.68-4.2,11.84-18.81,14.89-21.18.66-.51.6-.73,1.56-.5,4.46,1.09,11.94,6.9,16.96,8.59Z"/>
    <path class="cls-42" d="M429.31,311.94c6.25,11.42,8.83,18.08,11,31l-.19,2.35c-6.16,1.53-11.35,4.14-15.56,7.83-2.09,5.9-6.81,11.09-8.25,1.83-.44-3.96-1.66-10.91-2.85-14.65-.42-1.33-.34-3.04-2.14-3.35,1.76,6.03.86,12.4-.03,18.49-.74,5.07-3.14-2.09-3.79-3.17-2.19-3.6-9.88-14.44-10.72-17.28-1.18-3.96.1-8.25-.46-12.04,9.28,3.59,20.82,2.23,23.89-9.76,2.57-3.38,6.23-4.93,9.11-1.24Z"/>
    <path class="cls-40" d="M236.31,526.94c-2.3,2.97,1.51,4.32,2.52,6.98.92,2.41,4.92,17.71,4.53,19.36-1.92,2.32-5.77,1.04-8.06,2.16-.28.14-4.59,4.65-3,5.5-10.99,3.81-22.11,7.57-34,7l-8.99-.99c5.84-1.86,12.85.16,15.77-5.74,3.6-7.25.45-10.9,1.25-16.7.41-2.94,2.82-3.88,2.97-6.57-3.2-.4-6.72,2.44-9.5,0l2.51-2c10.25-1.33,24.17-5.27,34-9Z"/>
    <path class="cls-11" d="M300.31,77.94c-10.23,3.25-10.32,13.98-15,22-11.88-5.47-22.26-8.75-32.69-17.81l-24.3-12.18c24.85-4.59,48.86-1.66,71.99,7.99Z"/>
    <path class="cls-3" d="M440.31,342.94c.72,4.31,1.94,9.91,2.04,14.46.41,18.62-4.64,38.28-13.54,54.54-1.42-8.01-2.68-16.17-5-23.99-1.71-5.77-6.47-14.05-7.26-18.74s.27-9.7-.24-14.26c3.39,7.63,4.99-.53,6.58-2.92,3.63-5.49,11.98-6.04,17.42-9.08Z"/>
    <path class="cls-13" d="M184.31,425.94l-36,47c-1.06-.59-5.41-1.46-5.85-2.15,1.57-18.4,9.57-35.68,15.9-52.83,8.16,2.14,17.7,6.74,25.95,7.98Z"/>
    <path class="cls-46" d="M390.31,276.94c10.01,3.21,15.45,7.1,23,14l-.49,2.82c-6.59,5.78-12.5,12.09-17.74,18.94l-1.77-1.76c-.3-.78-3.51-6.56-3.99-6-.53,1.37.99,2.3.99,2.5v17.5c-7.32-8.51-12.2-18.84-20-27-1.18-2.7-.03-5.49,3.45-8.38l13.94-12.6,2.61-.02Z"/>
    <path class="cls-8" d="M360.31,146.94c1.88,7.3,3.17,16.46,4,24,.83,2.64.83,4.98,0,7-3.13.79-13.72,2.4-14.84,5.66-1.15,7.13,2.12,43.11-3.32,46.19-2.07,1.17-4.68-2.21-6.84-1.85-.38,5.38.49,11.26.03,16.57-.11,1.33-.98,2.09-1.04,2.42.83-16.96-.79-33.59-5-50,5.29.79,6.47-5.23,10.63-7.88,1.27-.81,4.03-.98,4.25-1.23,1.16-1.33-2.21-20.56-2.88-23.89-.57-3.01,1.56-3.19,4.18-3.07,8.26,2.64,10-.33,5.21-8.9-.89-3.76,2.12-7.94,5.61-5.03Z"/>
    <path class="cls-35" d="M428.31,233.94c2.06.03,6.41-.61,7.57.97-.53,9.09,2.37,11-7.55,14.55-6.39,2.29-10.23,1.42-15.68,7.82-2.6,3.05-6.45,11.57.65,9.67.26,1.68-1.88.93-3,.99-9.94.49-20.05-.36-30,0,.21-.02,1.12-.93,2.42-1.04,5.3-.47,11.2.43,16.58.03-3.52-8.65-17.77,5.81-15.78-6.29.73-4.48,12.52-6.65,16.48-8.51,7-3.29,9.53-5.92,6.31-14.19,7.85-2.15,13.58-4.12,22-4Z"/>
    <path class="cls-30" d="M429.31,311.94c-9.36-1.89-8.01,7.04-11.92,10.58-4.88,4.42-12.51,4.65-18.6,3.47-2.32-.45-1.24-1.67-2.48-3.05-.39-2.62-2.08-9.57-3-12,2.4.13,2.57-1.46,3.54-2.96,3.99-6.19,10.25-12.75,16.46-17.04,8.26,7.55,10.73,11.39,16,21Z"/>
    <path class="cls-32" d="M449.31,436.94c4.74-.62,11.39.52,16.21,1.29,23.26,3.74,45.79,14.94,61.79,32.21-.78,1.5-2.41-.29-3.33-.67-23.38-9.87-43.74-18.85-69.67-19.83,1.58.02,4.16.75,2.51-2.01-2.77-4.66-11.38-5.88-11.57-6.53-.89-3.1,1.17-4.08,4.06-4.46Z"/>
    <path class="cls-15" d="M390.31,276.94c-6.26,8.02-15.36,11.3-20,21-2.86-2.99-9.54-9.14-13-11,2.14-5.24,7.6-6.66,9-12.99l-10.99-.02c-.2-1.34-.27-1.47.99-1.99,7.57,1.82,15.67.89,23.37,2.13,3.64.59,7.15,1.76,10.63,2.87Z"/>
    <path class="cls-53" d="M360.31,146.94c-9.97,2.75,3.29,9.97-2.49,16.04-2.06,2.16-9.27-1.95-12.51.96-1.51-7.42-6.53-11.89-1.24-19.73,2.57-3.81,9.23-1.47,13.24-5.27.92,2.68,2.29,5.23,3,8Z"/>
    <path class="cls-4" d="M166.31,284.94c2.59-.26,3.32,3.8,6,5-1.78,1.03-10.44,8.3-12,6.99,1.35-4.46,3.63-8.07,6-11.99Z"/>
    <path class="cls-58" d="M242.31,261.94c-5.39,1.41-10.58,3.68-16,4.99-.58-.47,6.3-8.14,7-8.99,2.5,3.13,7.53.59,9,4Z"/>
    <path class="cls-44" d="M486.31,282.94c1.65,2.49,4.89,5.28,4.99,9-.55.55-9.33-3.35-10.99-4,1.44-2.15,3.26-4.72,6-5Z"/>
    <path class="cls-62" d="M198.31,270.94c2.23.78,6.6,1.22,6,4-1.5.56-9.39,4.59-9.99,3.99.27-2.97,2.44-5.59,3.99-7.99Z"/>
    <path class="cls-27" d="M299.31,177.94c-.94,6.8-9.17-1.89-4-4,1.46,1.29,2.64,2.68,4,4Z"/>
    <path class="cls-56" d="M191.31,520.94c-6.09,1.67-14.91,1.67-21,0,6.62.28,14.4.32,21,0Z"/>
    <path class="cls-53" d="M364.31,190.94c.2-4.29,0-8.7,0-13v-7c.04.38.93,1.6,1.07,3.38.38,4.79.41,12.11-1.07,16.62Z"/>
    <path class="cls-12" d="M519.04,562.14c11.28-2.46,13.75,12.67,5.33,15.35-12.59,4.01-14.77-13.29-5.33-15.35Z"/>
    <path class="cls-14" d="M418.03,615.15c11.92-2.71,14.92,11.65,7.03,15.03-12.49,5.35-15.9-13.02-7.03-15.03Z"/>
    <path class="cls-63" d="M468.02,522.15c11.21-3.36,15.83,14.13,4.33,16.4-10.7,2.11-13.31-13.71-4.33-16.4Z"/>
    <path class="cls-14" d="M559.02,492.15c12.15-3.59,15.44,14.58,4.34,16.38-10.43,1.69-12.99-13.82-4.34-16.38Z"/>
  </g>
</svg>