<?xml version="1.0" encoding="UTF-8"?>
<svg xmlns="http://www.w3.org/2000/svg" xmlns:xlink="http://www.w3.org/1999/xlink" width="1200" height="1200" viewBox="0 0 1200 1200" role="img" aria-labelledby="title desc">
  <title id="title">Coastal Fix IT logo</title>
  <desc id="desc">A circular coastal technology logo with a palm tree and flowing wave circuit lines, with the text Coastal Fix IT below.</desc>
  <defs>
    <linearGradient id="ringGrad" x1="0%" y1="0%" x2="100%" y2="100%">
      <stop offset="0%" stop-color="#1DE6D3"/>
      <stop offset="100%" stop-color="#1C63F2"/>
    </linearGradient>
    <linearGradient id="treeGrad" x1="0%" y1="0%" x2="100%" y2="100%">
      <stop offset="0%" stop-color="#13E1D1"/>
      <stop offset="100%" stop-color="#0A53D6"/>
    </linearGradient>
    <linearGradient id="textGrad" x1="0%" y1="0%" x2="100%" y2="0%">
      <stop offset="0%" stop-color="#08144D"/>
      <stop offset="100%" stop-color="#124FD7"/>
    </linearGradient>
    <linearGradient id="itGrad" x1="0%" y1="0%" x2="100%" y2="100%">
      <stop offset="0%" stop-color="#25F0FF"/>
      <stop offset="100%" stop-color="#1DA5FF"/>
    </linearGradient>
    <filter id="softGlow" x="-50%" y="-50%" width="200%" height="200%">
      <feGaussianBlur stdDeviation="8" result="blur"/>
      <feColorMatrix in="blur" type="matrix"
        values="1 0 0 0 0
                0 1 0 0 0
                0 0 1 0 0
                0 0 0 0.45 0" result="glow"/>
      <feMerge>
        <feMergeNode in="glow"/>
        <feMergeNode in="SourceGraphic"/>
      </feMerge>
    </filter>
  </defs>

  <g transform="translate(0,0)">
    <g transform="translate(600 415)">
      <!-- circular ring -->
      <circle cx="0" cy="0" r="260" fill="none" stroke="url(#ringGrad)" stroke-width="14" stroke-linecap="round"/>

      <!-- palm leaves -->
      <g fill="url(#treeGrad)">
        <path d="M -10 -35 C -85 -120 -155 -135 -215 -120 C -160 -95 -118 -72 -65 -28 C -45 -10 -22 -8 -10 -35 Z"/>
        <path d="M -3 -45 C -32 -145 -20 -215 18 -252 C 24 -195 18 -138 8 -66 C 7 -52 2 -46 -3 -45 Z"/>
        <path d="M 12 -32 C 82 -115 156 -122 209 -97 C 151 -78 103 -53 47 -9 C 31 5 19 0 12 -32 Z"/>
        <path d="M 3 -18 C 52 14 86 68 94 132 C 54 92 22 52 -5 11 C -6 -2 -4 -10 3 -18 Z"/>
        <path d="M -12 -12 C -72 8 -116 58 -146 123 C -123 56 -82 14 -29 -20 C -21 -24 -16 -21 -12 -12 Z"/>
      </g>

      <!-- palm trunk -->
      <path fill="url(#treeGrad)" d="M -55 10 C -105 55 -142 119 -129 180 C -117 235 -64 255 -4 242 C -52 226 -70 189 -58 147 C -47 108 -22 70 10 25 C 18 14 10 6 -5 1 C -20 -3 -40 -1 -55 10 Z"/>

      <!-- wave-circuit lines -->
      <g fill="none" stroke="url(#ringGrad)" stroke-width="12" stroke-linecap="round" stroke-linejoin="round">
        <path d="M -155 171 C -100 221 -31 227 31 176 C 79 136 145 130 184 147"/>
        <path d="M -137 194 C -69 236 -2 235 61 188 C 106 154 143 153 174 153 L 202 153"/>
        <path d="M -113 219 C -43 250 25 245 94 204 C 120 189 144 190 165 190 L 183 190"/>
        <path d="M -88 241 C -19 261 43 252 110 220 C 129 211 146 213 159 213 L 159 213"/>
      </g>
      <g fill="url(#ringGrad)">
        <circle cx="202" cy="153" r="13"/>
        <circle cx="183" cy="190" r="13"/>
        <circle cx="159" cy="213" r="13"/>
        <circle cx="110" cy="220" r="13"/>
      </g>
    </g>

    <!-- wordmark -->
    <g transform="translate(600 905)">
      <text x="-15" y="0" text-anchor="end" font-family="Arial, Helvetica, sans-serif" font-size="105" font-weight="500" fill="url(#textGrad)">Coastal Fix</text>
      <text x="5" y="0" text-anchor="start" font-family="Arial, Helvetica, sans-serif" font-size="105" font-weight="700" fill="url(#itGrad)" filter="url(#softGlow)">IT</text>
    </g>
  </g>
</svg>
